<?xml version="1.0" encoding="UTF-8" standalone="no"?>
<!DOCTYPE svg PUBLIC "-//W3C//DTD SVG 1.1//EN"
 "http://www.w3.org/Graphics/SVG/1.1/DTD/svg11.dtd">
<!-- Generated by graphviz version 2.40.1 (20161225.0304)
 -->
<!-- Title: %3 Pages: 1 -->
<svg width="683pt" height="732pt"
 viewBox="0.00 0.00 683.09 732.00" xmlns="http://www.w3.org/2000/svg" xmlns:xlink="http://www.w3.org/1999/xlink">
<g id="graph0" class="graph" transform="scale(1 1) rotate(0) translate(4 728)">
<title>%3</title>
<polygon fill="#ffffff" stroke="transparent" points="-4,4 -4,-728 679.0862,-728 679.0862,4 -4,4"/>
<!-- _ -->
<g id="node1" class="node">
<title>_</title>
<ellipse fill="none" stroke="#000000" cx="307.7743" cy="-706" rx="31.4456" ry="18"/>
<text text-anchor="middle" x="307.7743" y="-701.8" font-family="Times,serif" font-size="14.00" fill="#000000">_ (#0)</text>
</g>
<!-- start -->
<g id="node2" class="node">
<title>start</title>
<ellipse fill="none" stroke="#000000" cx="307.7743" cy="-620" rx="46.2494" ry="18"/>
<text text-anchor="middle" x="307.7743" y="-615.8" font-family="Times,serif" font-size="14.00" fill="#000000">start (#11)</text>
</g>
<!-- _&#45;&gt;start -->
<g id="edge1" class="edge">
<title>_&#45;&gt;start</title>
<path fill="none" stroke="#000000" d="M307.7743,-687.7616C307.7743,-676.3597 307.7743,-661.4342 307.7743,-648.494"/>
<polygon fill="#000000" stroke="#000000" points="311.2744,-648.2121 307.7743,-638.2121 304.2744,-648.2121 311.2744,-648.2121"/>
<text text-anchor="middle" x="320.2191" y="-658.8" font-family="Times,serif" font-size="14.00" fill="#000000">t_75</text>
</g>
<!-- choose_product_to_see_description -->
<g id="node3" class="node">
<title>choose_product_to_see_description</title>
<ellipse fill="none" stroke="#000000" cx="153.7743" cy="-534" rx="153.5489" ry="18"/>
<text text-anchor="middle" x="153.7743" y="-529.8" font-family="Times,serif" font-size="14.00" fill="#000000">choose_product_to_see_description (#5)</text>
</g>
<!-- start&#45;&gt;choose_product_to_see_description -->
<g id="edge2" class="edge">
<title>start&#45;&gt;choose_product_to_see_description</title>
<path fill="none" stroke="#000000" d="M278.5557,-605.7519C265.6682,-599.3164 250.4089,-591.4896 236.8846,-584 221.636,-575.5555 205.1302,-565.7649 190.8771,-557.0976"/>
<polygon fill="#000000" stroke="#000000" points="192.6824,-554.099 182.3251,-551.8682 189.0306,-560.071 192.6824,-554.099"/>
<text text-anchor="middle" x="250.2191" y="-572.8" font-family="Times,serif" font-size="14.00" fill="#000000">t_95</text>
</g>
<!-- choose_product_to_make_order -->
<g id="node4" class="node">
<title>choose_product_to_make_order</title>
<ellipse fill="none" stroke="#000000" cx="466.7743" cy="-534" rx="140.9941" ry="18"/>
<text text-anchor="middle" x="466.7743" y="-529.8" font-family="Times,serif" font-size="14.00" fill="#000000">choose_product_to_make_order (#4)</text>
</g>
<!-- start&#45;&gt;choose_product_to_make_order -->
<g id="edge4" class="edge">
<title>start&#45;&gt;choose_product_to_make_order</title>
<path fill="none" stroke="#000000" d="M335.1074,-605.2161C359.9443,-591.7823 396.9434,-571.7702 425.4018,-556.3776"/>
<polygon fill="#000000" stroke="#000000" points="427.1845,-559.3926 434.3151,-551.5565 423.8542,-553.2355 427.1845,-559.3926"/>
<text text-anchor="middle" x="409.0502" y="-572.8" font-family="Times,serif" font-size="14.00" fill="#000000">t_f4</text>
</g>
<!-- choose_product_to_see_description&#45;&gt;start -->
<g id="edge3" class="edge">
<title>choose_product_to_see_description&#45;&gt;start</title>
<path fill="none" stroke="#000000" d="M220.1673,-550.261C234.5225,-555.3504 249.164,-561.8388 261.7743,-570 271.9336,-576.575 281.3379,-585.9103 288.9608,-594.7376"/>
<polygon fill="#000000" stroke="#000000" points="286.3768,-597.1058 295.4311,-602.6076 291.784,-592.6603 286.3768,-597.1058"/>
<text text-anchor="middle" x="290.2191" y="-572.8" font-family="Times,serif" font-size="14.00" fill="#000000">t_72</text>
</g>
<!-- choose_amount -->
<g id="node5" class="node">
<title>choose_amount</title>
<ellipse fill="none" stroke="#000000" cx="363.7743" cy="-448" rx="82.6118" ry="18"/>
<text text-anchor="middle" x="363.7743" y="-443.8" font-family="Times,serif" font-size="14.00" fill="#000000">choose_amount (#2)</text>
</g>
<!-- choose_product_to_make_order&#45;&gt;choose_amount -->
<g id="edge5" class="edge">
<title>choose_product_to_make_order&#45;&gt;choose_amount</title>
<path fill="none" stroke="#000000" d="M445.4326,-516.1807C430.1399,-503.412 409.3692,-486.0695 392.6034,-472.0709"/>
<polygon fill="#000000" stroke="#000000" points="394.6555,-469.2247 384.7362,-465.5022 390.1691,-474.598 394.6555,-469.2247"/>
<text text-anchor="middle" x="433.0502" y="-486.8" font-family="Times,serif" font-size="14.00" fill="#000000">t_f0</text>
</g>
<!-- confirm -->
<g id="node6" class="node">
<title>confirm</title>
<ellipse fill="none" stroke="#000000" cx="416.7743" cy="-362" rx="54.6234" ry="18"/>
<text text-anchor="middle" x="416.7743" y="-357.8" font-family="Times,serif" font-size="14.00" fill="#000000">confirm (#6)</text>
</g>
<!-- choose_amount&#45;&gt;confirm -->
<g id="edge6" class="edge">
<title>choose_amount&#45;&gt;confirm</title>
<path fill="none" stroke="#000000" d="M375.0142,-429.7616C382.3714,-417.8235 392.1092,-402.0226 400.3307,-388.6821"/>
<polygon fill="#000000" stroke="#000000" points="403.4654,-390.2667 405.7323,-379.9172 397.5061,-386.5941 403.4654,-390.2667"/>
<text text-anchor="middle" x="405.826" y="-400.8" font-family="Times,serif" font-size="14.00" fill="#000000">t_5e</text>
</g>
<!-- confirm&#45;&gt;choose_product_to_make_order -->
<g id="edge7" class="edge">
<title>confirm&#45;&gt;choose_product_to_make_order</title>
<path fill="none" stroke="#000000" d="M429.5472,-379.5061C438.4743,-392.7028 449.8228,-411.6139 455.7743,-430 463.8103,-454.8257 466.2903,-484.5549 466.9199,-505.8576"/>
<polygon fill="#000000" stroke="#000000" points="463.4206,-505.9329 467.0985,-515.8689 470.4195,-505.8081 463.4206,-505.9329"/>
<text text-anchor="middle" x="475.0502" y="-443.8" font-family="Times,serif" font-size="14.00" fill="#000000">t_f4</text>
</g>
<!-- delete -->
<g id="node7" class="node">
<title>delete</title>
<ellipse fill="none" stroke="#000000" cx="368.7743" cy="-276" rx="48.325" ry="18"/>
<text text-anchor="middle" x="368.7743" y="-271.8" font-family="Times,serif" font-size="14.00" fill="#000000">delete (#7)</text>
</g>
<!-- confirm&#45;&gt;delete -->
<g id="edge8" class="edge">
<title>confirm&#45;&gt;delete</title>
<path fill="none" stroke="#000000" d="M388.4635,-346.6126C381.0957,-341.1343 374.0606,-334.2389 369.8846,-326 366.5229,-319.3674 365.2861,-311.5768 365.1288,-304.1453"/>
<polygon fill="#000000" stroke="#000000" points="368.6306,-304.1634 365.5161,-294.0367 361.6357,-303.8953 368.6306,-304.1634"/>
<text text-anchor="middle" x="383.2191" y="-314.8" font-family="Times,serif" font-size="14.00" fill="#000000">t_04</text>
</g>
<!-- choose_address -->
<g id="node8" class="node">
<title>choose_address</title>
<ellipse fill="none" stroke="#000000" cx="517.7743" cy="-276" rx="82.6032" ry="18"/>
<text text-anchor="middle" x="517.7743" y="-271.8" font-family="Times,serif" font-size="14.00" fill="#000000">choose_address (#1)</text>
</g>
<!-- confirm&#45;&gt;choose_address -->
<g id="edge10" class="edge">
<title>confirm&#45;&gt;choose_address</title>
<path fill="none" stroke="#000000" d="M436.7286,-345.0092C451.7477,-332.2207 472.5407,-314.5158 489.3049,-300.2413"/>
<polygon fill="#000000" stroke="#000000" points="491.8232,-302.6939 497.168,-293.546 487.2851,-297.3642 491.8232,-302.6939"/>
<text text-anchor="middle" x="485.0502" y="-314.8" font-family="Times,serif" font-size="14.00" fill="#000000">t_0f</text>
</g>
<!-- delete&#45;&gt;confirm -->
<g id="edge9" class="edge">
<title>delete&#45;&gt;confirm</title>
<path fill="none" stroke="#000000" d="M382.5062,-293.4477C386.7114,-299.1866 391.1734,-305.7109 394.7743,-312 398.8371,-319.0959 402.6587,-327.0836 405.9407,-334.5575"/>
<polygon fill="#000000" stroke="#000000" points="402.8016,-336.1206 409.9194,-343.9684 409.2491,-333.3948 402.8016,-336.1206"/>
<text text-anchor="middle" x="413.826" y="-314.8" font-family="Times,serif" font-size="14.00" fill="#000000">t_5e</text>
</g>
<!-- choose_payment -->
<g id="node9" class="node">
<title>choose_payment</title>
<ellipse fill="none" stroke="#000000" cx="517.7743" cy="-190" rx="86.4621" ry="18"/>
<text text-anchor="middle" x="517.7743" y="-185.8" font-family="Times,serif" font-size="14.00" fill="#000000">choose_payment (#3)</text>
</g>
<!-- choose_address&#45;&gt;choose_payment -->
<g id="edge11" class="edge">
<title>choose_address&#45;&gt;choose_payment</title>
<path fill="none" stroke="#000000" d="M517.7743,-257.7616C517.7743,-246.3597 517.7743,-231.4342 517.7743,-218.494"/>
<polygon fill="#000000" stroke="#000000" points="521.2744,-218.2121 517.7743,-208.2121 514.2744,-218.2121 521.2744,-218.2121"/>
<text text-anchor="middle" x="529.826" y="-228.8" font-family="Times,serif" font-size="14.00" fill="#000000">t_8e</text>
</g>
<!-- send -->
<g id="node10" class="node">
<title>send</title>
<ellipse fill="none" stroke="#000000" cx="550.7743" cy="-104" rx="47.8665" ry="18"/>
<text text-anchor="middle" x="550.7743" y="-99.8" font-family="Times,serif" font-size="14.00" fill="#000000">send (#10)</text>
</g>
<!-- choose_payment&#45;&gt;send -->
<g id="edge12" class="edge">
<title>choose_payment&#45;&gt;send</title>
<path fill="none" stroke="#000000" d="M510.7198,-171.7478C508.0538,-161.9701 506.6041,-149.9289 511.0087,-140 513.1257,-135.2276 516.2227,-130.819 519.7687,-126.8437"/>
<polygon fill="#000000" stroke="#000000" points="522.3121,-129.2516 527.002,-119.7513 517.4113,-124.2534 522.3121,-129.2516"/>
<text text-anchor="middle" x="521.6571" y="-142.8" font-family="Times,serif" font-size="14.00" fill="#000000">t_fa</text>
</g>
<!-- send&#45;&gt;choose_payment -->
<g id="edge15" class="edge">
<title>send&#45;&gt;choose_payment</title>
<path fill="none" stroke="#000000" d="M544.489,-122.1315C541.1252,-131.6593 536.8463,-143.5068 532.7743,-154 531.7179,-156.7221 530.5918,-159.5488 529.4494,-162.3674"/>
<polygon fill="#000000" stroke="#000000" points="526.1544,-161.1771 525.5803,-171.7563 532.6264,-163.8441 526.1544,-161.1771"/>
<text text-anchor="middle" x="549.826" y="-142.8" font-family="Times,serif" font-size="14.00" fill="#000000">t_8e</text>
</g>
<!-- edit_address -->
<g id="node11" class="node">
<title>edit_address</title>
<ellipse fill="none" stroke="#000000" cx="503.7743" cy="-18" rx="71.0117" ry="18"/>
<text text-anchor="middle" x="503.7743" y="-13.8" font-family="Times,serif" font-size="14.00" fill="#000000">edit_address (#8)</text>
</g>
<!-- send&#45;&gt;edit_address -->
<g id="edge13" class="edge">
<title>send&#45;&gt;edit_address</title>
<path fill="none" stroke="#000000" d="M522.8512,-89.0277C515.3016,-83.4943 508.0689,-76.4643 503.8846,-68 500.5902,-61.3357 499.4876,-53.5347 499.479,-46.1032"/>
<polygon fill="#000000" stroke="#000000" points="502.9799,-46.1911 500.081,-36.0006 495.9923,-45.7747 502.9799,-46.1911"/>
<text text-anchor="middle" x="516.2191" y="-56.8" font-family="Times,serif" font-size="14.00" fill="#000000">t_17</text>
</g>
<!-- idle -->
<g id="node12" class="node">
<title>idle</title>
<ellipse fill="none" stroke="#000000" cx="634.7743" cy="-18" rx="40.1247" ry="18"/>
<text text-anchor="middle" x="634.7743" y="-13.8" font-family="Times,serif" font-size="14.00" fill="#000000">idle (#9)</text>
</g>
<!-- send&#45;&gt;idle -->
<g id="edge16" class="edge">
<title>send&#45;&gt;idle</title>
<path fill="none" stroke="#000000" d="M566.2915,-86.6135C575.1092,-76.8767 586.4425,-64.5987 596.8846,-54 600.9444,-49.8794 605.3318,-45.5786 609.632,-41.4429"/>
<polygon fill="#000000" stroke="#000000" points="612.3574,-43.6808 617.1884,-34.2514 607.5316,-38.6101 612.3574,-43.6808"/>
<text text-anchor="middle" x="609.2191" y="-56.8" font-family="Times,serif" font-size="14.00" fill="#000000">t_48</text>
</g>
<!-- edit_address&#45;&gt;send -->
<g id="edge14" class="edge">
<title>edit_address&#45;&gt;send</title>
<path fill="none" stroke="#000000" d="M517.1954,-35.8745C521.161,-41.5259 525.3522,-47.8929 528.7743,-54 532.7713,-61.1332 536.5714,-69.133 539.8539,-76.6066"/>
<polygon fill="#000000" stroke="#000000" points="536.7162,-78.1724 543.8439,-86.0111 543.1602,-75.4384 536.7162,-78.1724"/>
<text text-anchor="middle" x="545.6571" y="-56.8" font-family="Times,serif" font-size="14.00" fill="#000000">t_fa</text>
</g>
<!-- idle&#45;&gt;start -->
<g id="edge17" class="edge">
<title>idle&#45;&gt;start</title>
<path fill="none" stroke="#000000" d="M635.1073,-36.1192C635.3982,-53.5229 635.7743,-80.5574 635.7743,-104 635.7743,-534 635.7743,-534 635.7743,-534 635.7743,-589.5364 457.6054,-609.925 363.8955,-616.8078"/>
<polygon fill="#000000" stroke="#000000" points="363.4552,-613.33 353.7266,-617.526 363.9484,-620.3127 363.4552,-613.33"/>
<text text-anchor="middle" x="648.2191" y="-314.8" font-family="Times,serif" font-size="14.00" fill="#000000">t_19</text>
</g>
</g>
</svg>
