<?xml version="1.0" encoding="UTF-8" standalone="no"?>
<!DOCTYPE svg PUBLIC "-//W3C//DTD SVG 1.1//EN"
 "http://www.w3.org/Graphics/SVG/1.1/DTD/svg11.dtd">
<!-- Generated by graphviz version 2.40.1 (20161225.0304)
 -->
<!-- Title: %3 Pages: 1 -->
<svg width="646pt" height="620pt"
 viewBox="0.00 0.00 646.37 620.00" xmlns="http://www.w3.org/2000/svg" xmlns:xlink="http://www.w3.org/1999/xlink">
<g id="graph0" class="graph" transform="scale(1 1) rotate(0) translate(4 616)">
<title>%3</title>
<polygon fill="#ffffff" stroke="transparent" points="-4,4 -4,-616 642.3728,-616 642.3728,4 -4,4"/>
<!-- 0 -->
<g id="node1" class="node">
<title>0</title>
<ellipse fill="none" stroke="#000000" cx="309.7743" cy="-594" rx="31.4456" ry="18"/>
<text text-anchor="middle" x="309.7743" y="-589.8" font-family="Times,serif" font-size="14.00" fill="#000000">_ (#0)</text>
</g>
<!-- 10 -->
<g id="node2" class="node">
<title>10</title>
<ellipse fill="none" stroke="#000000" cx="309.7743" cy="-522" rx="46.8976" ry="18"/>
<text text-anchor="middle" x="309.7743" y="-517.8" font-family="Times,serif" font-size="14.00" fill="#000000">start (#10)</text>
</g>
<!-- 0&#45;&gt;10 -->
<g id="edge1" class="edge">
<title>0&#45;&gt;10</title>
<path fill="none" stroke="#000000" d="M309.7743,-575.8314C309.7743,-568.131 309.7743,-558.9743 309.7743,-550.4166"/>
<polygon fill="#000000" stroke="#000000" points="313.2744,-550.4132 309.7743,-540.4133 306.2744,-550.4133 313.2744,-550.4132"/>
</g>
<!-- 5 -->
<g id="node3" class="node">
<title>5</title>
<ellipse fill="none" stroke="#000000" cx="153.7743" cy="-450" rx="153.5489" ry="18"/>
<text text-anchor="middle" x="153.7743" y="-445.8" font-family="Times,serif" font-size="14.00" fill="#000000">choose_product_to_see_description (#5)</text>
</g>
<!-- 10&#45;&gt;5 -->
<g id="edge2" class="edge">
<title>10&#45;&gt;5</title>
<path fill="none" stroke="#000000" d="M276.5687,-509.1278C252.7379,-498.8248 220.5994,-484.1389 195.127,-471.981"/>
<polygon fill="#000000" stroke="#000000" points="196.601,-468.8063 186.0718,-467.629 193.5688,-475.1154 196.601,-468.8063"/>
</g>
<!-- 4 -->
<g id="node4" class="node">
<title>4</title>
<ellipse fill="none" stroke="#000000" cx="466.7743" cy="-450" rx="140.9941" ry="18"/>
<text text-anchor="middle" x="466.7743" y="-445.8" font-family="Times,serif" font-size="14.00" fill="#000000">choose_product_to_make_order (#4)</text>
</g>
<!-- 10&#45;&gt;4 -->
<g id="edge4" class="edge">
<title>10&#45;&gt;4</title>
<path fill="none" stroke="#000000" d="M340.0455,-508.1177C362.5838,-497.7816 393.7821,-483.4741 419.5835,-471.6416"/>
<polygon fill="#000000" stroke="#000000" points="421.1883,-474.7562 428.819,-467.4062 418.2703,-468.3934 421.1883,-474.7562"/>
</g>
<!-- 5&#45;&gt;10 -->
<g id="edge3" class="edge">
<title>5&#45;&gt;10</title>
<path fill="none" stroke="#000000" d="M197.1342,-467.3052C221.361,-477.9739 251.1097,-491.6744 274.0036,-502.6943"/>
<polygon fill="#000000" stroke="#000000" points="272.519,-505.8641 283.0437,-507.0816 275.5754,-499.5666 272.519,-505.8641"/>
</g>
<!-- 2 -->
<g id="node5" class="node">
<title>2</title>
<ellipse fill="none" stroke="#000000" cx="363.7743" cy="-378" rx="82.6118" ry="18"/>
<text text-anchor="middle" x="363.7743" y="-373.8" font-family="Times,serif" font-size="14.00" fill="#000000">choose_amount (#2)</text>
</g>
<!-- 4&#45;&gt;2 -->
<g id="edge5" class="edge">
<title>4&#45;&gt;2</title>
<path fill="none" stroke="#000000" d="M441.3136,-432.2022C427.9935,-422.8911 411.5196,-411.3754 397.1868,-401.3564"/>
<polygon fill="#000000" stroke="#000000" points="398.788,-398.2053 388.5867,-395.3446 394.7775,-403.9425 398.788,-398.2053"/>
</g>
<!-- 6 -->
<g id="node6" class="node">
<title>6</title>
<ellipse fill="none" stroke="#000000" cx="372.7743" cy="-306" rx="54.6234" ry="18"/>
<text text-anchor="middle" x="372.7743" y="-301.8" font-family="Times,serif" font-size="14.00" fill="#000000">confirm (#6)</text>
</g>
<!-- 2&#45;&gt;6 -->
<g id="edge6" class="edge">
<title>2&#45;&gt;6</title>
<path fill="none" stroke="#000000" d="M366.0454,-359.8314C367.0079,-352.131 368.1525,-342.9743 369.2222,-334.4166"/>
<polygon fill="#000000" stroke="#000000" points="372.7052,-334.7702 370.4726,-324.4133 365.7592,-333.9019 372.7052,-334.7702"/>
</g>
<!-- 6&#45;&gt;4 -->
<g id="edge7" class="edge">
<title>6&#45;&gt;4</title>
<path fill="none" stroke="#000000" d="M407.6416,-320.0547C424.9839,-328.8936 444.5817,-342.0603 455.7743,-360 467.2507,-378.3947 469.5621,-403.0481 469.2484,-421.9009"/>
<polygon fill="#000000" stroke="#000000" points="465.7483,-421.8326 468.8279,-431.9699 472.7422,-422.1247 465.7483,-421.8326"/>
</g>
<!-- 7 -->
<g id="node7" class="node">
<title>7</title>
<ellipse fill="none" stroke="#000000" cx="372.7743" cy="-234" rx="48.325" ry="18"/>
<text text-anchor="middle" x="372.7743" y="-229.8" font-family="Times,serif" font-size="14.00" fill="#000000">delete (#7)</text>
</g>
<!-- 6&#45;&gt;7 -->
<g id="edge8" class="edge">
<title>6&#45;&gt;7</title>
<path fill="none" stroke="#000000" d="M366.8219,-287.8314C366.0599,-280.0125 365.8439,-270.6923 366.1738,-262.0221"/>
<polygon fill="#000000" stroke="#000000" points="369.6747,-262.1239 366.847,-251.9134 362.6902,-261.6587 369.6747,-262.1239"/>
</g>
<!-- 1 -->
<g id="node8" class="node">
<title>1</title>
<ellipse fill="none" stroke="#000000" cx="521.7743" cy="-234" rx="82.6032" ry="18"/>
<text text-anchor="middle" x="521.7743" y="-229.8" font-family="Times,serif" font-size="14.00" fill="#000000">choose_address (#1)</text>
</g>
<!-- 6&#45;&gt;1 -->
<g id="edge10" class="edge">
<title>6&#45;&gt;1</title>
<path fill="none" stroke="#000000" d="M403.6472,-291.0816C425.2443,-280.6454 454.3938,-266.5597 478.3323,-254.9921"/>
<polygon fill="#000000" stroke="#000000" points="480.0789,-258.0354 487.56,-250.5331 477.0333,-251.7326 480.0789,-258.0354"/>
</g>
<!-- 7&#45;&gt;6 -->
<g id="edge9" class="edge">
<title>7&#45;&gt;6</title>
<path fill="none" stroke="#000000" d="M378.7016,-251.9134C379.4754,-259.6993 379.7034,-269.01 379.3853,-277.6941"/>
<polygon fill="#000000" stroke="#000000" points="375.8825,-277.6254 378.7267,-287.8314 382.8678,-278.0794 375.8825,-277.6254"/>
</g>
<!-- 3 -->
<g id="node9" class="node">
<title>3</title>
<ellipse fill="none" stroke="#000000" cx="521.7743" cy="-162" rx="86.4621" ry="18"/>
<text text-anchor="middle" x="521.7743" y="-157.8" font-family="Times,serif" font-size="14.00" fill="#000000">choose_payment (#3)</text>
</g>
<!-- 1&#45;&gt;3 -->
<g id="edge11" class="edge">
<title>1&#45;&gt;3</title>
<path fill="none" stroke="#000000" d="M521.7743,-215.8314C521.7743,-208.131 521.7743,-198.9743 521.7743,-190.4166"/>
<polygon fill="#000000" stroke="#000000" points="525.2744,-190.4132 521.7743,-180.4133 518.2744,-190.4133 525.2744,-190.4132"/>
</g>
<!-- 9 -->
<g id="node10" class="node">
<title>9</title>
<ellipse fill="none" stroke="#000000" cx="521.7743" cy="-90" rx="43.0237" ry="18"/>
<text text-anchor="middle" x="521.7743" y="-85.8" font-family="Times,serif" font-size="14.00" fill="#000000">send (#9)</text>
</g>
<!-- 3&#45;&gt;9 -->
<g id="edge12" class="edge">
<title>3&#45;&gt;9</title>
<path fill="none" stroke="#000000" d="M515.8219,-143.8314C515.0599,-136.0125 514.8439,-126.6923 515.1738,-118.0221"/>
<polygon fill="#000000" stroke="#000000" points="518.6747,-118.1239 515.847,-107.9134 511.6902,-117.6587 518.6747,-118.1239"/>
</g>
<!-- 9&#45;&gt;10 -->
<g id="edge16" class="edge">
<title>9&#45;&gt;10</title>
<path fill="none" stroke="#000000" d="M556.1836,-101.3092C576.8287,-109.8472 601.8889,-123.6267 616.7743,-144 640.8921,-177.0097 635.7743,-193.1184 635.7743,-234 635.7743,-378 635.7743,-378 635.7743,-378 635.7743,-418.8816 646.1684,-439.587 616.7743,-468 581.9099,-501.7007 445.4199,-514.6805 366.6677,-519.4353"/>
<polygon fill="#000000" stroke="#000000" points="366.2053,-515.9561 356.4239,-520.0271 366.6091,-522.9444 366.2053,-515.9561"/>
</g>
<!-- 9&#45;&gt;3 -->
<g id="edge15" class="edge">
<title>9&#45;&gt;3</title>
<path fill="none" stroke="#000000" d="M527.7016,-107.9134C528.4754,-115.6993 528.7034,-125.01 528.3853,-133.6941"/>
<polygon fill="#000000" stroke="#000000" points="524.8825,-133.6254 527.7267,-143.8314 531.8678,-134.0794 524.8825,-133.6254"/>
</g>
<!-- 8 -->
<g id="node11" class="node">
<title>8</title>
<ellipse fill="none" stroke="#000000" cx="521.7743" cy="-18" rx="71.0117" ry="18"/>
<text text-anchor="middle" x="521.7743" y="-13.8" font-family="Times,serif" font-size="14.00" fill="#000000">edit_address (#8)</text>
</g>
<!-- 9&#45;&gt;8 -->
<g id="edge13" class="edge">
<title>9&#45;&gt;8</title>
<path fill="none" stroke="#000000" d="M515.8219,-71.8314C515.0715,-64.131 514.8506,-54.9743 515.1592,-46.4166"/>
<polygon fill="#000000" stroke="#000000" points="518.6535,-46.6161 515.7983,-36.4133 511.6677,-46.1697 518.6535,-46.6161"/>
</g>
<!-- 8&#45;&gt;9 -->
<g id="edge14" class="edge">
<title>8&#45;&gt;9</title>
<path fill="none" stroke="#000000" d="M527.7503,-36.4133C528.4814,-44.0593 528.6946,-53.1084 528.3898,-61.5726"/>
<polygon fill="#000000" stroke="#000000" points="524.8791,-61.6264 527.7267,-71.8314 531.8645,-62.078 524.8791,-61.6264"/>
</g>
</g>
</svg>
