<?xml version="1.0" encoding="UTF-8" standalone="no"?>
<!DOCTYPE svg PUBLIC "-//W3C//DTD SVG 1.1//EN"
 "http://www.w3.org/Graphics/SVG/1.1/DTD/svg11.dtd">
<!-- Generated by graphviz version 2.40.1 (20161225.0304)
 -->
<!-- Title: %3 Pages: 1 -->
<svg width="170pt" height="620pt"
 viewBox="0.00 0.00 170.00 620.00" xmlns="http://www.w3.org/2000/svg" xmlns:xlink="http://www.w3.org/1999/xlink">
<g id="graph0" class="graph" transform="scale(1 1) rotate(0) translate(4 616)">
<title>%3</title>
<polygon fill="#ffffff" stroke="transparent" points="-4,4 -4,-616 166,-616 166,4 -4,4"/>
<!-- 0 -->
<g id="node1" class="node">
<title>0</title>
<ellipse fill="none" stroke="#000000" cx="63" cy="-594" rx="27" ry="18"/>
<text text-anchor="middle" x="63" y="-589.8" font-family="Times,serif" font-size="14.00" fill="#000000">0</text>
</g>
<!-- 10 -->
<g id="node2" class="node">
<title>10</title>
<ellipse fill="none" stroke="#000000" cx="63" cy="-522" rx="27" ry="18"/>
<text text-anchor="middle" x="63" y="-517.8" font-family="Times,serif" font-size="14.00" fill="#000000">10</text>
</g>
<!-- 0&#45;&gt;10 -->
<g id="edge1" class="edge">
<title>0&#45;&gt;10</title>
<path fill="none" stroke="#000000" d="M63,-575.8314C63,-568.131 63,-558.9743 63,-550.4166"/>
<polygon fill="#000000" stroke="#000000" points="66.5001,-550.4132 63,-540.4133 59.5001,-550.4133 66.5001,-550.4132"/>
</g>
<!-- 5 -->
<g id="node3" class="node">
<title>5</title>
<ellipse fill="none" stroke="#000000" cx="27" cy="-450" rx="27" ry="18"/>
<text text-anchor="middle" x="27" y="-445.8" font-family="Times,serif" font-size="14.00" fill="#000000">5</text>
</g>
<!-- 10&#45;&gt;5 -->
<g id="edge2" class="edge">
<title>10&#45;&gt;5</title>
<path fill="none" stroke="#000000" d="M49.5101,-506.3771C44.2925,-497.9398 38.6601,-487.276 34.1698,-477.4994"/>
<polygon fill="#000000" stroke="#000000" points="37.3009,-475.9219 30.1179,-468.1338 30.8764,-478.7014 37.3009,-475.9219"/>
</g>
<!-- 4 -->
<g id="node4" class="node">
<title>4</title>
<ellipse fill="none" stroke="#000000" cx="99" cy="-450" rx="27" ry="18"/>
<text text-anchor="middle" x="99" y="-445.8" font-family="Times,serif" font-size="14.00" fill="#000000">4</text>
</g>
<!-- 10&#45;&gt;4 -->
<g id="edge4" class="edge">
<title>10&#45;&gt;4</title>
<path fill="none" stroke="#000000" d="M71.7146,-504.5708C75.9597,-496.0807 81.1536,-485.6929 85.8663,-476.2674"/>
<polygon fill="#000000" stroke="#000000" points="89.024,-477.7782 90.3657,-467.2687 82.763,-474.6477 89.024,-477.7782"/>
</g>
<!-- 5&#45;&gt;10 -->
<g id="edge3" class="edge">
<title>5&#45;&gt;10</title>
<path fill="none" stroke="#000000" d="M40.6959,-465.9568C45.8674,-474.3599 51.4248,-484.9015 55.8612,-494.5681"/>
<polygon fill="#000000" stroke="#000000" points="52.6856,-496.0428 59.8681,-503.8314 59.1103,-493.2637 52.6856,-496.0428"/>
</g>
<!-- 2 -->
<g id="node5" class="node">
<title>2</title>
<ellipse fill="none" stroke="#000000" cx="44" cy="-378" rx="27" ry="18"/>
<text text-anchor="middle" x="44" y="-373.8" font-family="Times,serif" font-size="14.00" fill="#000000">2</text>
</g>
<!-- 4&#45;&gt;2 -->
<g id="edge5" class="edge">
<title>4&#45;&gt;2</title>
<path fill="none" stroke="#000000" d="M86.5196,-433.6621C79.4876,-424.4564 70.5653,-412.7764 62.7117,-402.4953"/>
<polygon fill="#000000" stroke="#000000" points="65.2828,-400.0953 56.431,-394.2733 59.72,-404.3446 65.2828,-400.0953"/>
</g>
<!-- 6 -->
<g id="node6" class="node">
<title>6</title>
<ellipse fill="none" stroke="#000000" cx="44" cy="-306" rx="27" ry="18"/>
<text text-anchor="middle" x="44" y="-301.8" font-family="Times,serif" font-size="14.00" fill="#000000">6</text>
</g>
<!-- 2&#45;&gt;6 -->
<g id="edge6" class="edge">
<title>2&#45;&gt;6</title>
<path fill="none" stroke="#000000" d="M44,-359.8314C44,-352.131 44,-342.9743 44,-334.4166"/>
<polygon fill="#000000" stroke="#000000" points="47.5001,-334.4132 44,-324.4133 40.5001,-334.4133 47.5001,-334.4132"/>
</g>
<!-- 6&#45;&gt;4 -->
<g id="edge7" class="edge">
<title>6&#45;&gt;4</title>
<path fill="none" stroke="#000000" d="M57.0989,-322.0847C64.8441,-332.3613 74.2352,-346.2898 80,-360 88.3306,-379.8124 93.1533,-403.6679 95.8541,-421.8395"/>
<polygon fill="#000000" stroke="#000000" points="92.3941,-422.3711 97.2095,-431.8083 99.3302,-421.4279 92.3941,-422.3711"/>
</g>
<!-- 7 -->
<g id="node7" class="node">
<title>7</title>
<ellipse fill="none" stroke="#000000" cx="35" cy="-234" rx="27" ry="18"/>
<text text-anchor="middle" x="35" y="-229.8" font-family="Times,serif" font-size="14.00" fill="#000000">7</text>
</g>
<!-- 6&#45;&gt;7 -->
<g id="edge8" class="edge">
<title>6&#45;&gt;7</title>
<path fill="none" stroke="#000000" d="M35.9431,-288.5708C34.1276,-280.6139 32.6835,-270.9902 31.9051,-262.054"/>
<polygon fill="#000000" stroke="#000000" points="35.3961,-261.7977 31.3147,-252.0206 28.4082,-262.2089 35.3961,-261.7977"/>
</g>
<!-- 1 -->
<g id="node8" class="node">
<title>1</title>
<ellipse fill="none" stroke="#000000" cx="107" cy="-234" rx="27" ry="18"/>
<text text-anchor="middle" x="107" y="-229.8" font-family="Times,serif" font-size="14.00" fill="#000000">1</text>
</g>
<!-- 6&#45;&gt;1 -->
<g id="edge10" class="edge">
<title>6&#45;&gt;1</title>
<path fill="none" stroke="#000000" d="M57.6701,-290.3771C66.1734,-280.659 77.2613,-267.987 86.7708,-257.1191"/>
<polygon fill="#000000" stroke="#000000" points="89.4056,-259.423 93.3566,-249.5924 84.1375,-254.8135 89.4056,-259.423"/>
</g>
<!-- 7&#45;&gt;6 -->
<g id="edge9" class="edge">
<title>7&#45;&gt;6</title>
<path fill="none" stroke="#000000" d="M43.0543,-251.4177C44.8628,-259.3407 46.303,-268.9181 47.0843,-277.8241"/>
<polygon fill="#000000" stroke="#000000" points="43.5919,-278.0576 47.6813,-287.8314 50.5795,-277.6406 43.5919,-278.0576"/>
</g>
<!-- 3 -->
<g id="node9" class="node">
<title>3</title>
<ellipse fill="none" stroke="#000000" cx="107" cy="-162" rx="27" ry="18"/>
<text text-anchor="middle" x="107" y="-157.8" font-family="Times,serif" font-size="14.00" fill="#000000">3</text>
</g>
<!-- 1&#45;&gt;3 -->
<g id="edge11" class="edge">
<title>1&#45;&gt;3</title>
<path fill="none" stroke="#000000" d="M107,-215.8314C107,-208.131 107,-198.9743 107,-190.4166"/>
<polygon fill="#000000" stroke="#000000" points="110.5001,-190.4132 107,-180.4133 103.5001,-190.4133 110.5001,-190.4132"/>
</g>
<!-- 9 -->
<g id="node10" class="node">
<title>9</title>
<ellipse fill="none" stroke="#000000" cx="107" cy="-90" rx="27" ry="18"/>
<text text-anchor="middle" x="107" y="-85.8" font-family="Times,serif" font-size="14.00" fill="#000000">9</text>
</g>
<!-- 3&#45;&gt;9 -->
<g id="edge12" class="edge">
<title>3&#45;&gt;9</title>
<path fill="none" stroke="#000000" d="M101.0843,-144.2022C100.2798,-136.1807 100.0571,-126.5231 100.4162,-117.5957"/>
<polygon fill="#000000" stroke="#000000" points="103.9097,-117.8099 101.105,-107.593 96.9262,-117.3289 103.9097,-117.8099"/>
</g>
<!-- 9&#45;&gt;10 -->
<g id="edge16" class="edge">
<title>9&#45;&gt;10</title>
<path fill="none" stroke="#000000" d="M120.0989,-106.0847C127.8441,-116.3613 137.2352,-130.2898 143,-144 158.8458,-181.6858 162,-193.1184 162,-234 162,-378 162,-378 162,-378 162,-419.7612 158.9023,-433.7556 135,-468 124.2613,-483.3851 107.7558,-496.218 93.256,-505.508"/>
<polygon fill="#000000" stroke="#000000" points="91.2634,-502.6238 84.5565,-510.8256 94.9142,-508.5964 91.2634,-502.6238"/>
</g>
<!-- 9&#45;&gt;3 -->
<g id="edge15" class="edge">
<title>9&#45;&gt;3</title>
<path fill="none" stroke="#000000" d="M112.895,-107.593C113.7094,-115.5865 113.942,-125.2363 113.5928,-134.1759"/>
<polygon fill="#000000" stroke="#000000" points="110.0976,-133.9891 112.9157,-144.2022 117.0817,-134.4608 110.0976,-133.9891"/>
</g>
<!-- 8 -->
<g id="node11" class="node">
<title>8</title>
<ellipse fill="none" stroke="#000000" cx="107" cy="-18" rx="27" ry="18"/>
<text text-anchor="middle" x="107" y="-13.8" font-family="Times,serif" font-size="14.00" fill="#000000">8</text>
</g>
<!-- 9&#45;&gt;8 -->
<g id="edge13" class="edge">
<title>9&#45;&gt;8</title>
<path fill="none" stroke="#000000" d="M101.0843,-72.2022C100.2798,-64.1807 100.0571,-54.5231 100.4162,-45.5957"/>
<polygon fill="#000000" stroke="#000000" points="103.9097,-45.8099 101.105,-35.593 96.9262,-45.3289 103.9097,-45.8099"/>
</g>
<!-- 8&#45;&gt;9 -->
<g id="edge14" class="edge">
<title>8&#45;&gt;9</title>
<path fill="none" stroke="#000000" d="M112.895,-35.593C113.7094,-43.5865 113.942,-53.2363 113.5928,-62.1759"/>
<polygon fill="#000000" stroke="#000000" points="110.0976,-61.9891 112.9157,-72.2022 117.0817,-62.4608 110.0976,-61.9891"/>
</g>
</g>
</svg>
