<?xml version="1.0" encoding="UTF-8" standalone="no"?>
<!DOCTYPE svg PUBLIC "-//W3C//DTD SVG 1.1//EN"
 "http://www.w3.org/Graphics/SVG/1.1/DTD/svg11.dtd">
<!-- Generated by graphviz version 2.40.1 (20161225.0304)
 -->
<!-- Title: %3 Pages: 1 -->
<svg width="669pt" height="732pt"
 viewBox="0.00 0.00 668.66 732.00" xmlns="http://www.w3.org/2000/svg" xmlns:xlink="http://www.w3.org/1999/xlink">
<g id="graph0" class="graph" transform="scale(1 1) rotate(0) translate(4 728)">
<title>%3</title>
<polygon fill="#ffffff" stroke="transparent" points="-4,4 -4,-728 664.6639,-728 664.6639,4 -4,4"/>
<!-- _ -->
<g id="node1" class="node">
<title>_</title>
<ellipse fill="none" stroke="#000000" cx="307.7743" cy="-706" rx="31.4456" ry="18"/>
<text text-anchor="middle" x="307.7743" y="-701.8" font-family="Times,serif" font-size="14.00" fill="#000000">_ (#0)</text>
</g>
<!-- start -->
<g id="node2" class="node">
<title>start</title>
<ellipse fill="none" stroke="#000000" cx="307.7743" cy="-620" rx="46.8976" ry="18"/>
<text text-anchor="middle" x="307.7743" y="-615.8" font-family="Times,serif" font-size="14.00" fill="#000000">start (#10)</text>
</g>
<!-- _&#45;&gt;start -->
<g id="edge1" class="edge">
<title>_&#45;&gt;start</title>
<path fill="none" stroke="#000000" d="M307.7743,-687.7616C307.7743,-676.3597 307.7743,-661.4342 307.7743,-648.494"/>
<polygon fill="#000000" stroke="#000000" points="311.2744,-648.2121 307.7743,-638.2121 304.2744,-648.2121 311.2744,-648.2121"/>
<text text-anchor="middle" x="320.2191" y="-658.8" font-family="Times,serif" font-size="14.00" fill="#000000">t_75</text>
</g>
<!-- choose_product_to_see_description -->
<g id="node3" class="node">
<title>choose_product_to_see_description</title>
<ellipse fill="none" stroke="#000000" cx="153.7743" cy="-534" rx="153.5489" ry="18"/>
<text text-anchor="middle" x="153.7743" y="-529.8" font-family="Times,serif" font-size="14.00" fill="#000000">choose_product_to_see_description (#5)</text>
</g>
<!-- start&#45;&gt;choose_product_to_see_description -->
<g id="edge2" class="edge">
<title>start&#45;&gt;choose_product_to_see_description</title>
<path fill="none" stroke="#000000" d="M278.5557,-605.7519C265.6682,-599.3164 250.4089,-591.4896 236.8846,-584 221.636,-575.5555 205.1302,-565.7649 190.8771,-557.0976"/>
<polygon fill="#000000" stroke="#000000" points="192.6824,-554.099 182.3251,-551.8682 189.0306,-560.071 192.6824,-554.099"/>
<text text-anchor="middle" x="250.2191" y="-572.8" font-family="Times,serif" font-size="14.00" fill="#000000">t_95</text>
</g>
<!-- choose_product_to_make_order -->
<g id="node4" class="node">
<title>choose_product_to_make_order</title>
<ellipse fill="none" stroke="#000000" cx="466.7743" cy="-534" rx="140.9941" ry="18"/>
<text text-anchor="middle" x="466.7743" y="-529.8" font-family="Times,serif" font-size="14.00" fill="#000000">choose_product_to_make_order (#4)</text>
</g>
<!-- start&#45;&gt;choose_product_to_make_order -->
<g id="edge4" class="edge">
<title>start&#45;&gt;choose_product_to_make_order</title>
<path fill="none" stroke="#000000" d="M335.1074,-605.2161C359.9443,-591.7823 396.9434,-571.7702 425.4018,-556.3776"/>
<polygon fill="#000000" stroke="#000000" points="427.1845,-559.3926 434.3151,-551.5565 423.8542,-553.2355 427.1845,-559.3926"/>
<text text-anchor="middle" x="409.0502" y="-572.8" font-family="Times,serif" font-size="14.00" fill="#000000">t_f4</text>
</g>
<!-- choose_product_to_see_description&#45;&gt;start -->
<g id="edge3" class="edge">
<title>choose_product_to_see_description&#45;&gt;start</title>
<path fill="none" stroke="#000000" d="M220.1673,-550.261C234.5225,-555.3504 249.164,-561.8388 261.7743,-570 271.9336,-576.575 281.3379,-585.9103 288.9608,-594.7376"/>
<polygon fill="#000000" stroke="#000000" points="286.3768,-597.1058 295.4311,-602.6076 291.784,-592.6603 286.3768,-597.1058"/>
<text text-anchor="middle" x="290.2191" y="-572.8" font-family="Times,serif" font-size="14.00" fill="#000000">t_72</text>
</g>
<!-- choose_amount -->
<g id="node5" class="node">
<title>choose_amount</title>
<ellipse fill="none" stroke="#000000" cx="365.7743" cy="-448" rx="82.6118" ry="18"/>
<text text-anchor="middle" x="365.7743" y="-443.8" font-family="Times,serif" font-size="14.00" fill="#000000">choose_amount (#2)</text>
</g>
<!-- choose_product_to_make_order&#45;&gt;choose_amount -->
<g id="edge5" class="edge">
<title>choose_product_to_make_order&#45;&gt;choose_amount</title>
<path fill="none" stroke="#000000" d="M445.847,-516.1807C430.8512,-503.412 410.4838,-486.0695 394.0436,-472.0709"/>
<polygon fill="#000000" stroke="#000000" points="396.2121,-469.3204 386.3292,-465.5022 391.6739,-474.6501 396.2121,-469.3204"/>
<text text-anchor="middle" x="434.0502" y="-486.8" font-family="Times,serif" font-size="14.00" fill="#000000">t_f0</text>
</g>
<!-- confirm -->
<g id="node6" class="node">
<title>confirm</title>
<ellipse fill="none" stroke="#000000" cx="420.7743" cy="-362" rx="54.6234" ry="18"/>
<text text-anchor="middle" x="420.7743" y="-357.8" font-family="Times,serif" font-size="14.00" fill="#000000">confirm (#6)</text>
</g>
<!-- choose_amount&#45;&gt;confirm -->
<g id="edge6" class="edge">
<title>choose_amount&#45;&gt;confirm</title>
<path fill="none" stroke="#000000" d="M377.4384,-429.7616C385.1245,-417.7433 395.3142,-401.8103 403.8817,-388.4138"/>
<polygon fill="#000000" stroke="#000000" points="407.064,-389.9341 409.5032,-379.6239 401.1668,-386.1627 407.064,-389.9341"/>
<text text-anchor="middle" x="408.826" y="-400.8" font-family="Times,serif" font-size="14.00" fill="#000000">t_5e</text>
</g>
<!-- confirm&#45;&gt;choose_product_to_make_order -->
<g id="edge7" class="edge">
<title>confirm&#45;&gt;choose_product_to_make_order</title>
<path fill="none" stroke="#000000" d="M432.9794,-379.572C441.492,-392.8015 452.2745,-411.7248 457.7743,-430 465.2459,-454.8274 467.1773,-484.385 467.4274,-505.6324"/>
<polygon fill="#000000" stroke="#000000" points="463.9274,-505.9161 467.4253,-515.9168 470.9274,-505.9175 463.9274,-505.9161"/>
<text text-anchor="middle" x="477.0502" y="-443.8" font-family="Times,serif" font-size="14.00" fill="#000000">t_f4</text>
</g>
<!-- delete -->
<g id="node7" class="node">
<title>delete</title>
<ellipse fill="none" stroke="#000000" cx="372.7743" cy="-276" rx="48.325" ry="18"/>
<text text-anchor="middle" x="372.7743" y="-271.8" font-family="Times,serif" font-size="14.00" fill="#000000">delete (#7)</text>
</g>
<!-- confirm&#45;&gt;delete -->
<g id="edge8" class="edge">
<title>confirm&#45;&gt;delete</title>
<path fill="none" stroke="#000000" d="M392.4635,-346.6126C385.0957,-341.1343 378.0606,-334.2389 373.8846,-326 370.5229,-319.3674 369.2861,-311.5768 369.1288,-304.1453"/>
<polygon fill="#000000" stroke="#000000" points="372.6306,-304.1634 369.5161,-294.0367 365.6357,-303.8953 372.6306,-304.1634"/>
<text text-anchor="middle" x="387.2191" y="-314.8" font-family="Times,serif" font-size="14.00" fill="#000000">t_04</text>
</g>
<!-- choose_address -->
<g id="node8" class="node">
<title>choose_address</title>
<ellipse fill="none" stroke="#000000" cx="521.7743" cy="-276" rx="82.6032" ry="18"/>
<text text-anchor="middle" x="521.7743" y="-271.8" font-family="Times,serif" font-size="14.00" fill="#000000">choose_address (#1)</text>
</g>
<!-- confirm&#45;&gt;choose_address -->
<g id="edge10" class="edge">
<title>confirm&#45;&gt;choose_address</title>
<path fill="none" stroke="#000000" d="M440.7286,-345.0092C455.7477,-332.2207 476.5407,-314.5158 493.3049,-300.2413"/>
<polygon fill="#000000" stroke="#000000" points="495.8232,-302.6939 501.168,-293.546 491.2851,-297.3642 495.8232,-302.6939"/>
<text text-anchor="middle" x="489.0502" y="-314.8" font-family="Times,serif" font-size="14.00" fill="#000000">t_0f</text>
</g>
<!-- delete&#45;&gt;confirm -->
<g id="edge9" class="edge">
<title>delete&#45;&gt;confirm</title>
<path fill="none" stroke="#000000" d="M386.5062,-293.4477C390.7114,-299.1866 395.1734,-305.7109 398.7743,-312 402.8371,-319.0959 406.6587,-327.0836 409.9407,-334.5575"/>
<polygon fill="#000000" stroke="#000000" points="406.8016,-336.1206 413.9194,-343.9684 413.2491,-333.3948 406.8016,-336.1206"/>
<text text-anchor="middle" x="417.826" y="-314.8" font-family="Times,serif" font-size="14.00" fill="#000000">t_5e</text>
</g>
<!-- choose_payment -->
<g id="node9" class="node">
<title>choose_payment</title>
<ellipse fill="none" stroke="#000000" cx="521.7743" cy="-190" rx="86.4621" ry="18"/>
<text text-anchor="middle" x="521.7743" y="-185.8" font-family="Times,serif" font-size="14.00" fill="#000000">choose_payment (#3)</text>
</g>
<!-- choose_address&#45;&gt;choose_payment -->
<g id="edge11" class="edge">
<title>choose_address&#45;&gt;choose_payment</title>
<path fill="none" stroke="#000000" d="M521.7743,-257.7616C521.7743,-246.3597 521.7743,-231.4342 521.7743,-218.494"/>
<polygon fill="#000000" stroke="#000000" points="525.2744,-218.2121 521.7743,-208.2121 518.2744,-218.2121 525.2744,-218.2121"/>
<text text-anchor="middle" x="533.826" y="-228.8" font-family="Times,serif" font-size="14.00" fill="#000000">t_8e</text>
</g>
<!-- send -->
<g id="node10" class="node">
<title>send</title>
<ellipse fill="none" stroke="#000000" cx="566.7743" cy="-104" rx="43.0237" ry="18"/>
<text text-anchor="middle" x="566.7743" y="-99.8" font-family="Times,serif" font-size="14.00" fill="#000000">send (#9)</text>
</g>
<!-- choose_payment&#45;&gt;send -->
<g id="edge12" class="edge">
<title>choose_payment&#45;&gt;send</title>
<path fill="none" stroke="#000000" d="M518.6574,-171.5482C517.8537,-161.7119 518.2908,-149.6785 523.0087,-140 525.6047,-134.6744 529.401,-129.8624 533.6894,-125.6168"/>
<polygon fill="#000000" stroke="#000000" points="536.017,-128.2309 541.2458,-119.0163 531.4119,-122.959 536.017,-128.2309"/>
<text text-anchor="middle" x="533.6571" y="-142.8" font-family="Times,serif" font-size="14.00" fill="#000000">t_fa</text>
</g>
<!-- send&#45;&gt;start -->
<g id="edge16" class="edge">
<title>send&#45;&gt;start</title>
<path fill="none" stroke="#000000" d="M590.1345,-119.4461C610.152,-134.7354 635.7743,-160.1382 635.7743,-190 635.7743,-534 635.7743,-534 635.7743,-534 635.7743,-589.4655 458.0602,-609.8728 364.255,-616.7813"/>
<polygon fill="#000000" stroke="#000000" points="363.8007,-613.3046 354.073,-617.5025 364.2953,-620.2871 363.8007,-613.3046"/>
<text text-anchor="middle" x="648.2191" y="-357.8" font-family="Times,serif" font-size="14.00" fill="#000000">t_48</text>
</g>
<!-- send&#45;&gt;choose_payment -->
<g id="edge15" class="edge">
<title>send&#45;&gt;choose_payment</title>
<path fill="none" stroke="#000000" d="M559.6857,-121.9022C555.6595,-131.5774 550.3245,-143.6324 544.7743,-154 543.1138,-157.1018 541.2789,-160.2902 539.3913,-163.4265"/>
<polygon fill="#000000" stroke="#000000" points="536.358,-161.6763 534.033,-172.0129 542.2965,-165.3822 536.358,-161.6763"/>
<text text-anchor="middle" x="562.826" y="-142.8" font-family="Times,serif" font-size="14.00" fill="#000000">t_8e</text>
</g>
<!-- edit_address -->
<g id="node11" class="node">
<title>edit_address</title>
<ellipse fill="none" stroke="#000000" cx="566.7743" cy="-18" rx="71.0117" ry="18"/>
<text text-anchor="middle" x="566.7743" y="-13.8" font-family="Times,serif" font-size="14.00" fill="#000000">edit_address (#8)</text>
</g>
<!-- send&#45;&gt;edit_address -->
<g id="edge13" class="edge">
<title>send&#45;&gt;edit_address</title>
<path fill="none" stroke="#000000" d="M552.9725,-86.6616C549.2801,-81.032 545.7884,-74.5425 543.8846,-68 541.634,-60.2656 543.3534,-52.1981 546.6704,-44.8572"/>
<polygon fill="#000000" stroke="#000000" points="549.7764,-46.4729 551.5477,-36.0272 543.649,-43.0883 549.7764,-46.4729"/>
<text text-anchor="middle" x="556.2191" y="-56.8" font-family="Times,serif" font-size="14.00" fill="#000000">t_17</text>
</g>
<!-- edit_address&#45;&gt;send -->
<g id="edge14" class="edge">
<title>edit_address&#45;&gt;send</title>
<path fill="none" stroke="#000000" d="M567.9883,-36.3059C568.3113,-41.9749 568.6145,-48.2434 568.7743,-54 568.9696,-61.0355 568.8409,-68.6256 568.5739,-75.7146"/>
<polygon fill="#000000" stroke="#000000" points="565.0661,-75.7966 568.0863,-85.9519 572.0582,-76.1297 565.0661,-75.7966"/>
<text text-anchor="middle" x="579.6571" y="-56.8" font-family="Times,serif" font-size="14.00" fill="#000000">t_fa</text>
</g>
</g>
</svg>
