<?xml version="1.0" encoding="UTF-8" standalone="no"?>
<!DOCTYPE svg PUBLIC "-//W3C//DTD SVG 1.1//EN"
 "http://www.w3.org/Graphics/SVG/1.1/DTD/svg11.dtd">
<!-- Generated by graphviz version 2.40.1 (20161225.0304)
 -->
<!-- Title: %3 Pages: 1 -->
<svg width="578pt" height="620pt"
 viewBox="0.00 0.00 578.35 620.00" xmlns="http://www.w3.org/2000/svg" xmlns:xlink="http://www.w3.org/1999/xlink">
<g id="graph0" class="graph" transform="scale(1 1) rotate(0) translate(4 616)">
<title>%3</title>
<polygon fill="#ffffff" stroke="transparent" points="-4,4 -4,-616 574.353,-616 574.353,4 -4,4"/>
<!-- _ -->
<g id="node1" class="node">
<title>_</title>
<ellipse fill="none" stroke="#000000" cx="275.8301" cy="-594" rx="27" ry="18"/>
<text text-anchor="middle" x="275.8301" y="-589.8" font-family="Times,serif" font-size="14.00" fill="#000000">_</text>
</g>
<!-- start -->
<g id="node2" class="node">
<title>start</title>
<ellipse fill="none" stroke="#000000" cx="275.8301" cy="-522" rx="27" ry="18"/>
<text text-anchor="middle" x="275.8301" y="-517.8" font-family="Times,serif" font-size="14.00" fill="#000000">start</text>
</g>
<!-- _&#45;&gt;start -->
<g id="edge1" class="edge">
<title>_&#45;&gt;start</title>
<path fill="none" stroke="#000000" d="M275.8301,-575.8314C275.8301,-568.131 275.8301,-558.9743 275.8301,-550.4166"/>
<polygon fill="#000000" stroke="#000000" points="279.3302,-550.4132 275.8301,-540.4133 272.3302,-550.4133 279.3302,-550.4132"/>
</g>
<!-- choose_product_to_see_description -->
<g id="node3" class="node">
<title>choose_product_to_see_description</title>
<ellipse fill="none" stroke="#000000" cx="136.8301" cy="-450" rx="136.6603" ry="18"/>
<text text-anchor="middle" x="136.8301" y="-445.8" font-family="Times,serif" font-size="14.00" fill="#000000">choose_product_to_see_description</text>
</g>
<!-- start&#45;&gt;choose_product_to_see_description -->
<g id="edge2" class="edge">
<title>start&#45;&gt;choose_product_to_see_description</title>
<path fill="none" stroke="#000000" d="M252.6119,-512.439C231.0577,-502.2864 198.8722,-485.8816 173.8364,-472.4345"/>
<polygon fill="#000000" stroke="#000000" points="175.429,-469.3167 164.9691,-467.6312 172.0949,-475.4717 175.429,-469.3167"/>
</g>
<!-- choose_product_to_make_order -->
<g id="node4" class="node">
<title>choose_product_to_make_order</title>
<ellipse fill="none" stroke="#000000" cx="415.8301" cy="-450" rx="124.1056" ry="18"/>
<text text-anchor="middle" x="415.8301" y="-445.8" font-family="Times,serif" font-size="14.00" fill="#000000">choose_product_to_make_order</text>
</g>
<!-- start&#45;&gt;choose_product_to_make_order -->
<g id="edge4" class="edge">
<title>start&#45;&gt;choose_product_to_make_order</title>
<path fill="none" stroke="#000000" d="M297.3982,-510.9078C317.482,-500.579 347.9987,-484.8847 373.0244,-472.0143"/>
<polygon fill="#000000" stroke="#000000" points="374.6743,-475.1016 381.9665,-467.4156 371.4728,-468.8766 374.6743,-475.1016"/>
</g>
<!-- choose_product_to_see_description&#45;&gt;start -->
<g id="edge3" class="edge">
<title>choose_product_to_see_description&#45;&gt;start</title>
<path fill="none" stroke="#000000" d="M176.1063,-467.3063C198.9257,-478.5214 227.0557,-493.0865 247.686,-504.3661"/>
<polygon fill="#000000" stroke="#000000" points="246.1467,-507.5144 256.5911,-509.2936 249.5358,-501.3895 246.1467,-507.5144"/>
</g>
<!-- choose_amount -->
<g id="node5" class="node">
<title>choose_amount</title>
<ellipse fill="none" stroke="#000000" cx="337.8301" cy="-378" rx="65.7235" ry="18"/>
<text text-anchor="middle" x="337.8301" y="-373.8" font-family="Times,serif" font-size="14.00" fill="#000000">choose_amount</text>
</g>
<!-- choose_product_to_make_order&#45;&gt;choose_amount -->
<g id="edge5" class="edge">
<title>choose_product_to_make_order&#45;&gt;choose_amount</title>
<path fill="none" stroke="#000000" d="M396.5492,-432.2022C386.7476,-423.1546 374.691,-412.0255 364.0581,-402.2105"/>
<polygon fill="#000000" stroke="#000000" points="366.3421,-399.5556 356.62,-395.3446 361.5941,-404.6992 366.3421,-399.5556"/>
</g>
<!-- confirm -->
<g id="node6" class="node">
<title>confirm</title>
<ellipse fill="none" stroke="#000000" cx="354.8301" cy="-306" rx="37.7352" ry="18"/>
<text text-anchor="middle" x="354.8301" y="-301.8" font-family="Times,serif" font-size="14.00" fill="#000000">confirm</text>
</g>
<!-- choose_amount&#45;&gt;confirm -->
<g id="edge6" class="edge">
<title>choose_amount&#45;&gt;confirm</title>
<path fill="none" stroke="#000000" d="M342.1199,-359.8314C343.9863,-351.9266 346.215,-342.4872 348.2812,-333.7365"/>
<polygon fill="#000000" stroke="#000000" points="351.7088,-334.4501 350.6005,-323.9134 344.8962,-332.8415 351.7088,-334.4501"/>
</g>
<!-- confirm&#45;&gt;choose_product_to_make_order -->
<g id="edge7" class="edge">
<title>confirm&#45;&gt;choose_product_to_make_order</title>
<path fill="none" stroke="#000000" d="M377.7649,-320.5372C390.5787,-330.0511 405.4195,-343.722 412.8301,-360 421.6021,-379.2687 421.9329,-403.3363 420.2986,-421.7337"/>
<polygon fill="#000000" stroke="#000000" points="416.8026,-421.5018 419.1581,-431.8314 423.7584,-422.2874 416.8026,-421.5018"/>
</g>
<!-- delete -->
<g id="node7" class="node">
<title>delete</title>
<ellipse fill="none" stroke="#000000" cx="354.8301" cy="-234" rx="31.4375" ry="18"/>
<text text-anchor="middle" x="354.8301" y="-229.8" font-family="Times,serif" font-size="14.00" fill="#000000">delete</text>
</g>
<!-- confirm&#45;&gt;delete -->
<g id="edge8" class="edge">
<title>confirm&#45;&gt;delete</title>
<path fill="none" stroke="#000000" d="M348.9143,-288.2022C348.1246,-280.3271 347.8955,-270.875 348.2272,-262.0852"/>
<polygon fill="#000000" stroke="#000000" points="351.737,-262.0532 348.9099,-251.8425 344.7525,-261.5876 351.737,-262.0532"/>
</g>
<!-- choose_address -->
<g id="node8" class="node">
<title>choose_address</title>
<ellipse fill="none" stroke="#000000" cx="469.8301" cy="-234" rx="65.7149" ry="18"/>
<text text-anchor="middle" x="469.8301" y="-229.8" font-family="Times,serif" font-size="14.00" fill="#000000">choose_address</text>
</g>
<!-- confirm&#45;&gt;choose_address -->
<g id="edge10" class="edge">
<title>confirm&#45;&gt;choose_address</title>
<path fill="none" stroke="#000000" d="M377.8256,-291.6028C394.0485,-281.4459 416.0861,-267.6484 434.5261,-256.1034"/>
<polygon fill="#000000" stroke="#000000" points="436.6296,-258.9158 443.2481,-250.6426 432.9149,-252.9827 436.6296,-258.9158"/>
</g>
<!-- delete&#45;&gt;confirm -->
<g id="edge9" class="edge">
<title>delete&#45;&gt;confirm</title>
<path fill="none" stroke="#000000" d="M360.7503,-251.8425C361.5379,-259.7236 361.7648,-269.1774 361.431,-277.9647"/>
<polygon fill="#000000" stroke="#000000" points="357.9215,-277.9908 360.7458,-288.2022 364.9059,-278.4583 357.9215,-277.9908"/>
</g>
<!-- choose_payment -->
<g id="node9" class="node">
<title>choose_payment</title>
<ellipse fill="none" stroke="#000000" cx="469.8301" cy="-162" rx="69.5736" ry="18"/>
<text text-anchor="middle" x="469.8301" y="-157.8" font-family="Times,serif" font-size="14.00" fill="#000000">choose_payment</text>
</g>
<!-- choose_address&#45;&gt;choose_payment -->
<g id="edge11" class="edge">
<title>choose_address&#45;&gt;choose_payment</title>
<path fill="none" stroke="#000000" d="M469.8301,-215.8314C469.8301,-208.131 469.8301,-198.9743 469.8301,-190.4166"/>
<polygon fill="#000000" stroke="#000000" points="473.3302,-190.4132 469.8301,-180.4133 466.3302,-190.4133 473.3302,-190.4132"/>
</g>
<!-- send -->
<g id="node10" class="node">
<title>send</title>
<ellipse fill="none" stroke="#000000" cx="469.8301" cy="-90" rx="27" ry="18"/>
<text text-anchor="middle" x="469.8301" y="-85.8" font-family="Times,serif" font-size="14.00" fill="#000000">send</text>
</g>
<!-- choose_payment&#45;&gt;send -->
<g id="edge12" class="edge">
<title>choose_payment&#45;&gt;send</title>
<path fill="none" stroke="#000000" d="M463.8777,-143.8314C463.1157,-136.0125 462.8997,-126.6923 463.2296,-118.0221"/>
<polygon fill="#000000" stroke="#000000" points="466.7305,-118.1239 463.9028,-107.9134 459.7459,-117.6587 466.7305,-118.1239"/>
</g>
<!-- send&#45;&gt;start -->
<g id="edge16" class="edge">
<title>send&#45;&gt;start</title>
<path fill="none" stroke="#000000" d="M492.8476,-99.8119C510.8903,-108.7089 535.1581,-123.5641 548.8301,-144 571.5624,-177.9787 567.8301,-193.1184 567.8301,-234 567.8301,-378 567.8301,-378 567.8301,-378 567.8301,-418.8816 577.9218,-439.2775 548.8301,-468 515.9504,-500.4623 379.809,-514.5606 313.0615,-519.6148"/>
<polygon fill="#000000" stroke="#000000" points="312.6905,-516.1325 302.9712,-520.3498 313.1991,-523.114 312.6905,-516.1325"/>
</g>
<!-- send&#45;&gt;choose_payment -->
<g id="edge15" class="edge">
<title>send&#45;&gt;choose_payment</title>
<path fill="none" stroke="#000000" d="M475.7573,-107.9134C476.5312,-115.6993 476.7591,-125.01 476.4411,-133.6941"/>
<polygon fill="#000000" stroke="#000000" points="472.9383,-133.6254 475.7825,-143.8314 479.9236,-134.0794 472.9383,-133.6254"/>
</g>
<!-- edit_address -->
<g id="node11" class="node">
<title>edit_address</title>
<ellipse fill="none" stroke="#000000" cx="469.8301" cy="-18" rx="54.123" ry="18"/>
<text text-anchor="middle" x="469.8301" y="-13.8" font-family="Times,serif" font-size="14.00" fill="#000000">edit_address</text>
</g>
<!-- send&#45;&gt;edit_address -->
<g id="edge13" class="edge">
<title>send&#45;&gt;edit_address</title>
<path fill="none" stroke="#000000" d="M463.9143,-72.2022C463.1305,-64.3864 462.899,-55.0171 463.2198,-46.2836"/>
<polygon fill="#000000" stroke="#000000" points="466.7261,-46.2999 463.8851,-36.0931 459.741,-45.8439 466.7261,-46.2999"/>
</g>
<!-- edit_address&#45;&gt;send -->
<g id="edge14" class="edge">
<title>edit_address&#45;&gt;send</title>
<path fill="none" stroke="#000000" d="M475.7751,-36.0931C476.545,-43.9477 476.7626,-53.3282 476.428,-62.0453"/>
<polygon fill="#000000" stroke="#000000" points="472.9239,-61.9901 475.7458,-72.2022 479.9081,-62.4593 472.9239,-61.9901"/>
</g>
</g>
</svg>
