<?xml version="1.0" encoding="UTF-8" standalone="no"?>
<!DOCTYPE svg PUBLIC "-//W3C//DTD SVG 1.1//EN"
 "http://www.w3.org/Graphics/SVG/1.1/DTD/svg11.dtd">
<!-- Generated by graphviz version 2.40.1 (20161225.0304)
 -->
<!-- Title: %3 Pages: 1 -->
<svg width="684pt" height="884pt"
 viewBox="0.00 0.00 684.18 884.36" xmlns="http://www.w3.org/2000/svg" xmlns:xlink="http://www.w3.org/1999/xlink">
<g id="graph0" class="graph" transform="scale(1 1) rotate(0) translate(4 880.364)">
<title>%3</title>
<polygon fill="#ffffff" stroke="transparent" points="-4,4 -4,-880.364 680.1841,-880.364 680.1841,4 -4,4"/>
<!-- _ -->
<g id="node1" class="node">
<title>_</title>
<ellipse fill="none" stroke="#000000" cx="274.7743" cy="-825.182" rx="31.4456" ry="18"/>
<text text-anchor="middle" x="274.7743" y="-820.982" font-family="Times,serif" font-size="14.00" fill="#000000">_ (#1)</text>
</g>
<!-- start -->
<g id="node2" class="node">
<title>start</title>
<ellipse fill="none" stroke="#000000" cx="324.7743" cy="-706" rx="46.8976" ry="18"/>
<text text-anchor="middle" x="324.7743" y="-701.8" font-family="Times,serif" font-size="14.00" fill="#000000">start (#13)</text>
</g>
<!-- _&#45;&gt;start -->
<g id="edge1" class="edge">
<title>_&#45;&gt;start</title>
<path fill="none" stroke="#000000" d="M282.152,-807.5963C290.3394,-788.0805 303.6574,-756.3351 313.2284,-733.5213"/>
<polygon fill="#000000" stroke="#000000" points="316.5612,-734.624 317.2024,-724.0486 310.1063,-731.9159 316.5612,-734.624"/>
<text text-anchor="middle" x="323.5502" y="-744.8" font-family="Times,serif" font-size="14.00" fill="#000000">t_75f</text>
</g>
<!-- choose_product_to_see_description -->
<g id="node3" class="node">
<title>choose_product_to_see_description</title>
<ellipse fill="none" stroke="#000000" cx="153.7743" cy="-620" rx="153.5489" ry="18"/>
<text text-anchor="middle" x="153.7743" y="-615.8" font-family="Times,serif" font-size="14.00" fill="#000000">choose_product_to_see_description (#7)</text>
</g>
<!-- start&#45;&gt;choose_product_to_see_description -->
<g id="edge2" class="edge">
<title>start&#45;&gt;choose_product_to_see_description</title>
<path fill="none" stroke="#000000" d="M289.2083,-694.1063C271.6006,-687.7468 250.2386,-679.3131 231.8846,-670 216.6905,-662.2902 200.7112,-652.4109 187.192,-643.473"/>
<polygon fill="#000000" stroke="#000000" points="188.9492,-640.4371 178.6962,-637.7678 185.0467,-646.2484 188.9492,-640.4371"/>
<text text-anchor="middle" x="248.7191" y="-658.8" font-family="Times,serif" font-size="14.00" fill="#000000">t_950</text>
</g>
<!-- choose_product_to_make_order -->
<g id="node4" class="node">
<title>choose_product_to_make_order</title>
<ellipse fill="none" stroke="#000000" cx="466.7743" cy="-620" rx="140.9941" ry="18"/>
<text text-anchor="middle" x="466.7743" y="-615.8" font-family="Times,serif" font-size="14.00" fill="#000000">choose_product_to_make_order (#6)</text>
</g>
<!-- start&#45;&gt;choose_product_to_make_order -->
<g id="edge4" class="edge">
<title>start&#45;&gt;choose_product_to_make_order</title>
<path fill="none" stroke="#000000" d="M350.161,-690.6249C372.044,-677.3719 403.952,-658.0473 428.8615,-642.9613"/>
<polygon fill="#000000" stroke="#000000" points="430.95,-645.7883 437.6904,-637.6142 427.3237,-639.8008 430.95,-645.7883"/>
<text text-anchor="middle" x="418.1571" y="-658.8" font-family="Times,serif" font-size="14.00" fill="#000000">t_f4a</text>
</g>
<!-- choose_product_to_see_description&#45;&gt;start -->
<g id="edge3" class="edge">
<title>choose_product_to_see_description&#45;&gt;start</title>
<path fill="none" stroke="#000000" d="M217.4096,-636.404C233.0483,-641.6192 249.4139,-648.1278 263.7743,-656 276.6917,-663.0812 289.5246,-673.0405 300.063,-682.2085"/>
<polygon fill="#000000" stroke="#000000" points="297.8571,-684.9316 307.6379,-689.0044 302.5317,-679.7212 297.8571,-684.9316"/>
<text text-anchor="middle" x="299.326" y="-658.8" font-family="Times,serif" font-size="14.00" fill="#000000">t_72a</text>
</g>
<!-- choose_amount -->
<g id="node5" class="node">
<title>choose_amount</title>
<ellipse fill="none" stroke="#000000" cx="352.7743" cy="-534" rx="82.6118" ry="18"/>
<text text-anchor="middle" x="352.7743" y="-529.8" font-family="Times,serif" font-size="14.00" fill="#000000">choose_amount (#3)</text>
</g>
<!-- choose_product_to_make_order&#45;&gt;choose_amount -->
<g id="edge5" class="edge">
<title>choose_product_to_make_order&#45;&gt;choose_amount</title>
<path fill="none" stroke="#000000" d="M443.1534,-602.1807C426.0736,-589.296 402.82,-571.7538 384.1773,-557.69"/>
<polygon fill="#000000" stroke="#000000" points="386.0659,-554.7305 375.9748,-551.5022 381.8502,-560.3187 386.0659,-554.7305"/>
<text text-anchor="middle" x="430.5502" y="-572.8" font-family="Times,serif" font-size="14.00" fill="#000000">t_f02</text>
</g>
<!-- confirm -->
<g id="node6" class="node">
<title>confirm</title>
<ellipse fill="none" stroke="#000000" cx="369.7743" cy="-448" rx="54.6234" ry="18"/>
<text text-anchor="middle" x="369.7743" y="-443.8" font-family="Times,serif" font-size="14.00" fill="#000000">confirm (#8)</text>
</g>
<!-- choose_amount&#45;&gt;confirm -->
<g id="edge6" class="edge">
<title>choose_amount&#45;&gt;confirm</title>
<path fill="none" stroke="#000000" d="M356.3795,-515.7616C358.656,-504.2456 361.6429,-489.1353 364.2184,-476.1064"/>
<polygon fill="#000000" stroke="#000000" points="367.6685,-476.701 366.1742,-466.2121 360.8014,-475.3435 367.6685,-476.701"/>
<text text-anchor="middle" x="377.326" y="-486.8" font-family="Times,serif" font-size="14.00" fill="#000000">t_5e1</text>
</g>
<!-- confirm&#45;&gt;choose_product_to_make_order -->
<g id="edge7" class="edge">
<title>confirm&#45;&gt;choose_product_to_make_order</title>
<path fill="none" stroke="#000000" d="M394.467,-464.09C411.2369,-476.3266 432.5183,-494.6632 444.7743,-516 458.2035,-539.3793 463.47,-569.9446 465.5168,-591.88"/>
<polygon fill="#000000" stroke="#000000" points="462.0297,-592.183 466.2847,-601.8858 469.0092,-591.6473 462.0297,-592.183"/>
<text text-anchor="middle" x="472.1571" y="-529.8" font-family="Times,serif" font-size="14.00" fill="#000000">t_f4a</text>
</g>
<!-- delete -->
<g id="node7" class="node">
<title>delete</title>
<ellipse fill="none" stroke="#000000" cx="314.7743" cy="-362" rx="48.325" ry="18"/>
<text text-anchor="middle" x="314.7743" y="-357.8" font-family="Times,serif" font-size="14.00" fill="#000000">delete (#9)</text>
</g>
<!-- confirm&#45;&gt;delete -->
<g id="edge8" class="edge">
<title>confirm&#45;&gt;delete</title>
<path fill="none" stroke="#000000" d="M337.3297,-433.4172C328.8646,-427.9615 320.7574,-420.8768 315.8846,-412 312.3065,-405.4816 310.9981,-397.7288 310.8412,-390.297"/>
<polygon fill="#000000" stroke="#000000" points="314.3439,-390.3057 311.2698,-380.1667 307.3502,-390.0098 314.3439,-390.3057"/>
<text text-anchor="middle" x="332.7191" y="-400.8" font-family="Times,serif" font-size="14.00" fill="#000000">t_04d</text>
</g>
<!-- choose_phone_number -->
<g id="node8" class="node">
<title>choose_phone_number</title>
<ellipse fill="none" stroke="#000000" cx="489.7743" cy="-362" rx="109.1553" ry="18"/>
<text text-anchor="middle" x="489.7743" y="-357.8" font-family="Times,serif" font-size="14.00" fill="#000000">choose_phone_number (#5)</text>
</g>
<!-- confirm&#45;&gt;choose_phone_number -->
<g id="edge10" class="edge">
<title>confirm&#45;&gt;choose_phone_number</title>
<path fill="none" stroke="#000000" d="M392.6278,-431.6216C410.7163,-418.6582 436.2308,-400.3728 456.5729,-385.7943"/>
<polygon fill="#000000" stroke="#000000" points="458.8482,-388.4698 464.9375,-379.7997 454.7705,-382.7801 458.8482,-388.4698"/>
<text text-anchor="middle" x="452.326" y="-400.8" font-family="Times,serif" font-size="14.00" fill="#000000">t_72e</text>
</g>
<!-- delete&#45;&gt;confirm -->
<g id="edge9" class="edge">
<title>delete&#45;&gt;confirm</title>
<path fill="none" stroke="#000000" d="M332.461,-378.9851C337.8121,-384.6992 343.4184,-391.3258 347.7743,-398 352.2432,-404.8474 356.1973,-412.754 359.4766,-420.2296"/>
<polygon fill="#000000" stroke="#000000" points="356.3299,-421.7793 363.3852,-429.6834 362.7988,-419.1048 356.3299,-421.7793"/>
<text text-anchor="middle" x="370.326" y="-400.8" font-family="Times,serif" font-size="14.00" fill="#000000">t_5e1</text>
</g>
<!-- choose_address -->
<g id="node9" class="node">
<title>choose_address</title>
<ellipse fill="none" stroke="#000000" cx="489.7743" cy="-276" rx="82.6032" ry="18"/>
<text text-anchor="middle" x="489.7743" y="-271.8" font-family="Times,serif" font-size="14.00" fill="#000000">choose_address (#2)</text>
</g>
<!-- choose_phone_number&#45;&gt;choose_address -->
<g id="edge11" class="edge">
<title>choose_phone_number&#45;&gt;choose_address</title>
<path fill="none" stroke="#000000" d="M489.7743,-343.7616C489.7743,-332.3597 489.7743,-317.4342 489.7743,-304.494"/>
<polygon fill="#000000" stroke="#000000" points="493.2744,-304.2121 489.7743,-294.2121 486.2744,-304.2121 493.2744,-304.2121"/>
<text text-anchor="middle" x="504.5502" y="-314.8" font-family="Times,serif" font-size="14.00" fill="#000000">t_0f1</text>
</g>
<!-- choose_payment -->
<g id="node10" class="node">
<title>choose_payment</title>
<ellipse fill="none" stroke="#000000" cx="489.7743" cy="-190" rx="86.4621" ry="18"/>
<text text-anchor="middle" x="489.7743" y="-185.8" font-family="Times,serif" font-size="14.00" fill="#000000">choose_payment (#4)</text>
</g>
<!-- choose_address&#45;&gt;choose_payment -->
<g id="edge12" class="edge">
<title>choose_address&#45;&gt;choose_payment</title>
<path fill="none" stroke="#000000" d="M489.7743,-257.7616C489.7743,-246.3597 489.7743,-231.4342 489.7743,-218.494"/>
<polygon fill="#000000" stroke="#000000" points="493.2744,-218.2121 489.7743,-208.2121 486.2744,-218.2121 493.2744,-218.2121"/>
<text text-anchor="middle" x="505.326" y="-228.8" font-family="Times,serif" font-size="14.00" fill="#000000">t_8e0</text>
</g>
<!-- send -->
<g id="node11" class="node">
<title>send</title>
<ellipse fill="none" stroke="#000000" cx="537.7743" cy="-104" rx="47.8665" ry="18"/>
<text text-anchor="middle" x="537.7743" y="-99.8" font-family="Times,serif" font-size="14.00" fill="#000000">send (#12)</text>
</g>
<!-- choose_payment&#45;&gt;send -->
<g id="edge13" class="edge">
<title>choose_payment&#45;&gt;send</title>
<path fill="none" stroke="#000000" d="M485.5693,-171.9688C484.1881,-162.0303 484.0796,-149.7653 489.0087,-140 491.9026,-134.2665 496.1884,-129.2206 501.0378,-124.8604"/>
<polygon fill="#000000" stroke="#000000" points="503.3226,-127.516 509.0034,-118.5728 498.9855,-122.0214 503.3226,-127.516"/>
<text text-anchor="middle" x="503.1571" y="-142.8" font-family="Times,serif" font-size="14.00" fill="#000000">t_fa7</text>
</g>
<!-- send&#45;&gt;choose_payment -->
<g id="edge16" class="edge">
<title>send&#45;&gt;choose_payment</title>
<path fill="none" stroke="#000000" d="M531.9064,-122.1506C528.4151,-131.8986 523.5424,-143.9438 517.7743,-154 515.8907,-157.2839 513.734,-160.5969 511.4719,-163.8135"/>
<polygon fill="#000000" stroke="#000000" points="508.5263,-161.9087 505.353,-172.0172 514.1374,-166.0939 508.5263,-161.9087"/>
<text text-anchor="middle" x="539.326" y="-142.8" font-family="Times,serif" font-size="14.00" fill="#000000">t_8e0</text>
</g>
<!-- edit_address -->
<g id="node12" class="node">
<title>edit_address</title>
<ellipse fill="none" stroke="#000000" cx="489.7743" cy="-18" rx="75.8547" ry="18"/>
<text text-anchor="middle" x="489.7743" y="-13.8" font-family="Times,serif" font-size="14.00" fill="#000000">edit_address (#10)</text>
</g>
<!-- send&#45;&gt;edit_address -->
<g id="edge14" class="edge">
<title>send&#45;&gt;edit_address</title>
<path fill="none" stroke="#000000" d="M506.3362,-90.2021C497.461,-84.6585 488.8708,-77.3272 483.8846,-68 480.3151,-61.3227 479.8357,-53.4393 480.7637,-45.9306"/>
<polygon fill="#000000" stroke="#000000" points="484.206,-46.5656 482.7438,-36.0721 477.3431,-45.1871 484.206,-46.5656"/>
<text text-anchor="middle" x="499.7191" y="-56.8" font-family="Times,serif" font-size="14.00" fill="#000000">t_177</text>
</g>
<!-- idle -->
<g id="node13" class="node">
<title>idle</title>
<ellipse fill="none" stroke="#000000" cx="631.7743" cy="-18" rx="44.3198" ry="18"/>
<text text-anchor="middle" x="631.7743" y="-13.8" font-family="Times,serif" font-size="14.00" fill="#000000">idle (#11)</text>
</g>
<!-- send&#45;&gt;idle -->
<g id="edge17" class="edge">
<title>send&#45;&gt;idle</title>
<path fill="none" stroke="#000000" d="M555.2499,-87.1645C565.4832,-77.3861 578.7073,-64.8861 590.6708,-54 595.2554,-49.8283 600.1775,-45.4407 604.9662,-41.2193"/>
<polygon fill="#000000" stroke="#000000" points="607.6026,-43.5627 612.8161,-34.3393 602.9888,-38.2985 607.6026,-43.5627"/>
<text text-anchor="middle" x="605.326" y="-56.8" font-family="Times,serif" font-size="14.00" fill="#000000">t_48c</text>
</g>
<!-- edit_address&#45;&gt;send -->
<g id="edge15" class="edge">
<title>edit_address&#45;&gt;send</title>
<path fill="none" stroke="#000000" d="M503.775,-35.8151C507.9009,-41.4641 512.25,-47.8447 515.7743,-54 519.8371,-61.0959 523.6587,-69.0836 526.9407,-76.5575"/>
<polygon fill="#000000" stroke="#000000" points="523.8016,-78.1206 530.9194,-85.9684 530.2491,-75.3948 523.8016,-78.1206"/>
<text text-anchor="middle" x="536.1571" y="-56.8" font-family="Times,serif" font-size="14.00" fill="#000000">t_fa7</text>
</g>
<!-- idle&#45;&gt;start -->
<g id="edge18" class="edge">
<title>idle&#45;&gt;start</title>
<path fill="none" stroke="#000000" d="M633.1062,-36.1085C634.2698,-53.5045 635.7743,-80.5337 635.7743,-104 635.7743,-620 635.7743,-620 635.7743,-620 635.7743,-672.2549 470.6094,-694.0209 381.0075,-701.9842"/>
<polygon fill="#000000" stroke="#000000" points="380.6619,-698.5009 370.9983,-702.8443 381.2613,-705.4752 380.6619,-698.5009"/>
<text text-anchor="middle" x="651.326" y="-357.8" font-family="Times,serif" font-size="14.00" fill="#000000">t_19e</text>
</g>
<!-- (any state) -->
<g id="node14" class="node">
<title>(any state)</title>
<ellipse fill="none" stroke="#000000" cx="375.7743" cy="-825.182" rx="47.3504" ry="47.3504"/>
<ellipse fill="none" stroke="#000000" cx="375.7743" cy="-825.182" rx="51.3647" ry="51.3647"/>
<text text-anchor="middle" x="375.7743" y="-820.982" font-family="Times,serif" font-size="14.00" fill="#000000">(any state)</text>
</g>
<!-- (any state)&#45;&gt;start -->
<g id="edge19" class="edge">
<title>(any state)&#45;&gt;start</title>
<path fill="none" stroke="#000000" d="M357.4505,-776.9427C352.8477,-765.4139 347.7864,-753.2036 342.7743,-742 341.4331,-739.0021 339.9777,-735.8915 338.4952,-732.8108"/>
<polygon fill="#000000" stroke="#000000" points="341.6142,-731.2221 334.0535,-723.8001 335.3356,-734.3171 341.6142,-731.2221"/>
<text text-anchor="middle" x="362.5502" y="-744.8" font-family="Times,serif" font-size="14.00" fill="#000000">t_75f</text>
</g>
</g>
</svg>
