<?xml version="1.0" encoding="UTF-8" standalone="no"?>
<!DOCTYPE svg PUBLIC "-//W3C//DTD SVG 1.1//EN"
 "http://www.w3.org/Graphics/SVG/1.1/DTD/svg11.dtd">
<!-- Generated by graphviz version 2.40.1 (20161225.0304)
 -->
<!-- Title: %3 Pages: 1 -->
<svg width="678pt" height="957pt"
 viewBox="0.00 0.00 678.18 957.36" xmlns="http://www.w3.org/2000/svg" xmlns:xlink="http://www.w3.org/1999/xlink">
<g id="graph0" class="graph" transform="scale(1 1) rotate(0) translate(4 953.364)">
<title>%3</title>
<polygon fill="#ffffff" stroke="transparent" points="-4,4 -4,-953.364 674.1841,-953.364 674.1841,4 -4,4"/>
<!-- initial state -->
<g id="node1" class="node">
<title>initial state</title>
<text text-anchor="middle" x="274.7743" y="-928.364" font-family="Times,serif" font-size="10.00" fill="#000000">(initial state)</text>
</g>
<!-- _ -->
<g id="node2" class="node">
<title>_</title>
<ellipse fill="none" stroke="#000000" cx="274.7743" cy="-825.182" rx="31.4456" ry="18"/>
<text text-anchor="middle" x="274.7743" y="-820.982" font-family="Times,serif" font-size="14.00" fill="#000000">_ (#1)</text>
</g>
<!-- initial state&#45;&gt;_ -->
<g id="edge1" class="edge">
<title>initial state&#45;&gt;_</title>
<path fill="none" stroke="#000000" d="M274.7743,-913.3517C274.7743,-896.9533 274.7743,-872.4732 274.7743,-853.4657"/>
<polygon fill="#000000" stroke="#000000" points="278.2744,-853.2827 274.7743,-843.2827 271.2744,-853.2827 278.2744,-853.2827"/>
</g>
<!-- start -->
<g id="node3" class="node">
<title>start</title>
<ellipse fill="none" stroke="#000000" cx="324.7743" cy="-706" rx="46.8976" ry="18"/>
<text text-anchor="middle" x="324.7743" y="-701.8" font-family="Times,serif" font-size="14.00" fill="#000000">start (#13)</text>
</g>
<!-- _&#45;&gt;start -->
<g id="edge2" class="edge">
<title>_&#45;&gt;start</title>
<path fill="none" stroke="#000000" d="M282.152,-807.5963C290.3394,-788.0805 303.6574,-756.3351 313.2284,-733.5213"/>
<polygon fill="#000000" stroke="#000000" points="316.5612,-734.624 317.2024,-724.0486 310.1063,-731.9159 316.5612,-734.624"/>
<text text-anchor="middle" x="323.5502" y="-744.8" font-family="Times,serif" font-size="14.00" fill="#000000">t_75f</text>
<text text-anchor="middle" x="266.9864" y="-796.3963" font-family="Times,serif" font-size="14.00" fill="#000000">ANY</text>
</g>
<!-- choose_product_to_see_description -->
<g id="node4" class="node">
<title>choose_product_to_see_description</title>
<ellipse fill="none" stroke="#000000" cx="153.7743" cy="-620" rx="153.5489" ry="18"/>
<text text-anchor="middle" x="153.7743" y="-615.8" font-family="Times,serif" font-size="14.00" fill="#000000">choose_product_to_see_description (#7)</text>
</g>
<!-- start&#45;&gt;choose_product_to_see_description -->
<g id="edge3" class="edge">
<title>start&#45;&gt;choose_product_to_see_description</title>
<path fill="none" stroke="#000000" d="M289.2083,-694.1063C271.6006,-687.7468 250.2386,-679.3131 231.8846,-670 216.6905,-662.2902 200.7112,-652.4109 187.192,-643.473"/>
<polygon fill="#000000" stroke="#000000" points="188.9492,-640.4371 178.6962,-637.7678 185.0467,-646.2484 188.9492,-640.4371"/>
<text text-anchor="middle" x="248.7191" y="-658.8" font-family="Times,serif" font-size="14.00" fill="#000000">t_950</text>
<text text-anchor="middle" x="266.66" y="-682.9063" font-family="Times,serif" font-size="14.00" fill="#000000">KEY(1)</text>
</g>
<!-- choose_product_to_make_order -->
<g id="node5" class="node">
<title>choose_product_to_make_order</title>
<ellipse fill="none" stroke="#000000" cx="466.7743" cy="-620" rx="140.9941" ry="18"/>
<text text-anchor="middle" x="466.7743" y="-615.8" font-family="Times,serif" font-size="14.00" fill="#000000">choose_product_to_make_order (#6)</text>
</g>
<!-- start&#45;&gt;choose_product_to_make_order -->
<g id="edge5" class="edge">
<title>start&#45;&gt;choose_product_to_make_order</title>
<path fill="none" stroke="#000000" d="M350.161,-690.6249C372.044,-677.3719 403.952,-658.0473 428.8615,-642.9613"/>
<polygon fill="#000000" stroke="#000000" points="430.95,-645.7883 437.6904,-637.6142 427.3237,-639.8008 430.95,-645.7883"/>
<text text-anchor="middle" x="418.1571" y="-658.8" font-family="Times,serif" font-size="14.00" fill="#000000">t_f4a</text>
<text text-anchor="middle" x="372.7094" y="-679.4249" font-family="Times,serif" font-size="14.00" fill="#000000">KEY(0)</text>
</g>
<!-- choose_product_to_see_description&#45;&gt;start -->
<g id="edge4" class="edge">
<title>choose_product_to_see_description&#45;&gt;start</title>
<path fill="none" stroke="#000000" d="M217.4096,-636.404C233.0483,-641.6192 249.4139,-648.1278 263.7743,-656 276.6917,-663.0812 289.5246,-673.0405 300.063,-682.2085"/>
<polygon fill="#000000" stroke="#000000" points="297.8571,-684.9316 307.6379,-689.0044 302.5317,-679.7212 297.8571,-684.9316"/>
<text text-anchor="middle" x="299.326" y="-658.8" font-family="Times,serif" font-size="14.00" fill="#000000">t_72a</text>
<text text-anchor="middle" x="183.1958" y="-639.204" font-family="Times,serif" font-size="14.00" fill="#000000">KEY(ANY)</text>
</g>
<!-- choose_amount -->
<g id="node6" class="node">
<title>choose_amount</title>
<ellipse fill="none" stroke="#000000" cx="349.7743" cy="-534" rx="82.6118" ry="18"/>
<text text-anchor="middle" x="349.7743" y="-529.8" font-family="Times,serif" font-size="14.00" fill="#000000">choose_amount (#3)</text>
</g>
<!-- choose_product_to_make_order&#45;&gt;choose_amount -->
<g id="edge6" class="edge">
<title>choose_product_to_make_order&#45;&gt;choose_amount</title>
<path fill="none" stroke="#000000" d="M442.5318,-602.1807C424.9236,-589.2379 400.9219,-571.5957 381.7454,-557.5001"/>
<polygon fill="#000000" stroke="#000000" points="383.7158,-554.6047 373.5854,-551.5022 379.57,-560.2449 383.7158,-554.6047"/>
<text text-anchor="middle" x="429.5502" y="-572.8" font-family="Times,serif" font-size="14.00" fill="#000000">t_f02</text>
<text text-anchor="middle" x="408.3179" y="-590.9807" font-family="Times,serif" font-size="14.00" fill="#000000">KEY(ANY)</text>
</g>
<!-- confirm -->
<g id="node7" class="node">
<title>confirm</title>
<ellipse fill="none" stroke="#000000" cx="355.7743" cy="-448" rx="54.6234" ry="18"/>
<text text-anchor="middle" x="355.7743" y="-443.8" font-family="Times,serif" font-size="14.00" fill="#000000">confirm (#8)</text>
</g>
<!-- choose_amount&#45;&gt;confirm -->
<g id="edge7" class="edge">
<title>choose_amount&#45;&gt;confirm</title>
<path fill="none" stroke="#000000" d="M351.0467,-515.7616C351.8422,-504.3597 352.8835,-489.4342 353.7863,-476.494"/>
<polygon fill="#000000" stroke="#000000" points="357.2991,-476.4315 354.5037,-466.2121 350.3161,-475.9442 357.2991,-476.4315"/>
<text text-anchor="middle" x="368.326" y="-486.8" font-family="Times,serif" font-size="14.00" fill="#000000">t_5e1</text>
<text text-anchor="middle" x="343.6605" y="-504.5616" font-family="Times,serif" font-size="14.00" fill="#000000">HI</text>
</g>
<!-- confirm&#45;&gt;choose_product_to_make_order -->
<g id="edge8" class="edge">
<title>confirm&#45;&gt;choose_product_to_make_order</title>
<path fill="none" stroke="#000000" d="M384.3147,-463.6597C403.3938,-475.5772 427.5232,-493.7089 441.7743,-516 456.3875,-538.8574 462.4637,-569.4965 464.9875,-591.5915"/>
<polygon fill="#000000" stroke="#000000" points="461.5167,-592.0635 465.9629,-601.6802 468.4842,-591.3898 461.5167,-592.0635"/>
<text text-anchor="middle" x="471.1571" y="-529.8" font-family="Times,serif" font-size="14.00" fill="#000000">t_f4a</text>
<text text-anchor="middle" x="406.8631" y="-466.4597" font-family="Times,serif" font-size="14.00" fill="#000000">KEY(0)</text>
</g>
<!-- delete -->
<g id="node8" class="node">
<title>delete</title>
<ellipse fill="none" stroke="#000000" cx="300.7743" cy="-362" rx="48.325" ry="18"/>
<text text-anchor="middle" x="300.7743" y="-357.8" font-family="Times,serif" font-size="14.00" fill="#000000">delete (#9)</text>
</g>
<!-- confirm&#45;&gt;delete -->
<g id="edge9" class="edge">
<title>confirm&#45;&gt;delete</title>
<path fill="none" stroke="#000000" d="M323.3297,-433.4172C314.8646,-427.9615 306.7574,-420.8768 301.8846,-412 298.3065,-405.4816 296.9981,-397.7288 296.8412,-390.297"/>
<polygon fill="#000000" stroke="#000000" points="300.3439,-390.3057 297.2698,-380.1667 293.3502,-390.0098 300.3439,-390.3057"/>
<text text-anchor="middle" x="318.7191" y="-400.8" font-family="Times,serif" font-size="14.00" fill="#000000">t_04d</text>
<text text-anchor="middle" x="300.7814" y="-422.2172" font-family="Times,serif" font-size="14.00" fill="#000000">KEY(1)</text>
</g>
<!-- choose_address -->
<g id="node9" class="node">
<title>choose_address</title>
<ellipse fill="none" stroke="#000000" cx="449.7743" cy="-362" rx="82.6032" ry="18"/>
<text text-anchor="middle" x="449.7743" y="-357.8" font-family="Times,serif" font-size="14.00" fill="#000000">choose_address (#2)</text>
</g>
<!-- confirm&#45;&gt;choose_address -->
<g id="edge11" class="edge">
<title>confirm&#45;&gt;choose_address</title>
<path fill="none" stroke="#000000" d="M374.3457,-431.0092C388.1967,-418.3369 407.3243,-400.8373 422.8515,-386.6314"/>
<polygon fill="#000000" stroke="#000000" points="425.5806,-388.8785 430.5961,-379.546 420.8555,-383.7138 425.5806,-388.8785"/>
<text text-anchor="middle" x="422.5502" y="-400.8" font-family="Times,serif" font-size="14.00" fill="#000000">t_0f1</text>
<text text-anchor="middle" x="396.894" y="-419.8092" font-family="Times,serif" font-size="14.00" fill="#000000">KEY(2)</text>
</g>
<!-- delete&#45;&gt;confirm -->
<g id="edge10" class="edge">
<title>delete&#45;&gt;confirm</title>
<path fill="none" stroke="#000000" d="M318.461,-378.9851C323.8121,-384.6992 329.4184,-391.3258 333.7743,-398 338.2432,-404.8474 342.1973,-412.754 345.4766,-420.2296"/>
<polygon fill="#000000" stroke="#000000" points="342.3299,-421.7793 349.3852,-429.6834 348.7988,-419.1048 342.3299,-421.7793"/>
<text text-anchor="middle" x="356.326" y="-400.8" font-family="Times,serif" font-size="14.00" fill="#000000">t_5e1</text>
<text text-anchor="middle" x="352.6748" y="-381.7851" font-family="Times,serif" font-size="14.00" fill="#000000">KEY(ANY)</text>
</g>
<!-- choose_phone_number -->
<g id="node10" class="node">
<title>choose_phone_number</title>
<ellipse fill="none" stroke="#000000" cx="449.7743" cy="-276" rx="109.1553" ry="18"/>
<text text-anchor="middle" x="449.7743" y="-271.8" font-family="Times,serif" font-size="14.00" fill="#000000">choose_phone_number (#5)</text>
</g>
<!-- choose_address&#45;&gt;choose_phone_number -->
<g id="edge12" class="edge">
<title>choose_address&#45;&gt;choose_phone_number</title>
<path fill="none" stroke="#000000" d="M449.7743,-343.7616C449.7743,-332.3597 449.7743,-317.4342 449.7743,-304.494"/>
<polygon fill="#000000" stroke="#000000" points="453.2744,-304.2121 449.7743,-294.2121 446.2744,-304.2121 453.2744,-304.2121"/>
<text text-anchor="middle" x="465.326" y="-314.8" font-family="Times,serif" font-size="14.00" fill="#000000">t_72e</text>
<text text-anchor="middle" x="445.4984" y="-332.5616" font-family="Times,serif" font-size="14.00" fill="#000000">T</text>
</g>
<!-- choose_phone_number&#45;&gt;choose_phone_number -->
<g id="edge13" class="edge">
<title>choose_phone_number&#45;&gt;choose_phone_number</title>
<path fill="none" stroke="#000000" d="M549.6647,-283.2693C565.7913,-282.217 576.8519,-279.7939 576.8519,-276 576.8519,-273.0656 570.2354,-270.9513 559.7759,-269.657"/>
<polygon fill="#000000" stroke="#000000" points="559.9423,-266.1577 549.6647,-268.7307 559.3037,-273.1285 559.9423,-266.1577"/>
<text text-anchor="middle" x="592.7968" y="-271.8" font-family="Times,serif" font-size="14.00" fill="#000000">t_dd7</text>
<text text-anchor="middle" x="564.8302" y="-286.0693" font-family="Times,serif" font-size="14.00" fill="#000000">ANY</text>
</g>
<!-- choose_payment -->
<g id="node11" class="node">
<title>choose_payment</title>
<ellipse fill="none" stroke="#000000" cx="476.7743" cy="-190" rx="86.4621" ry="18"/>
<text text-anchor="middle" x="476.7743" y="-185.8" font-family="Times,serif" font-size="14.00" fill="#000000">choose_payment (#4)</text>
</g>
<!-- choose_phone_number&#45;&gt;choose_payment -->
<g id="edge14" class="edge">
<title>choose_phone_number&#45;&gt;choose_payment</title>
<path fill="none" stroke="#000000" d="M455.5003,-257.7616C459.1158,-246.2456 463.8597,-231.1353 467.9502,-218.1064"/>
<polygon fill="#000000" stroke="#000000" points="471.4004,-218.8014 471.0565,-208.2121 464.7218,-216.7045 471.4004,-218.8014"/>
<text text-anchor="middle" x="480.326" y="-228.8" font-family="Times,serif" font-size="14.00" fill="#000000">t_8e0</text>
<text text-anchor="middle" x="446.552" y="-246.5616" font-family="Times,serif" font-size="14.00" fill="#000000">PN</text>
</g>
<!-- send -->
<g id="node12" class="node">
<title>send</title>
<ellipse fill="none" stroke="#000000" cx="528.7743" cy="-104" rx="47.8665" ry="18"/>
<text text-anchor="middle" x="528.7743" y="-99.8" font-family="Times,serif" font-size="14.00" fill="#000000">send (#12)</text>
</g>
<!-- choose_payment&#45;&gt;send -->
<g id="edge15" class="edge">
<title>choose_payment&#45;&gt;send</title>
<path fill="none" stroke="#000000" d="M473.4276,-171.8849C472.4868,-161.9203 472.8662,-149.6569 478.0087,-140 481.216,-133.977 485.9306,-128.7347 491.2135,-124.2545"/>
<polygon fill="#000000" stroke="#000000" points="493.3458,-127.0303 499.2508,-118.2336 489.149,-121.4279 493.3458,-127.0303"/>
<text text-anchor="middle" x="492.1571" y="-142.8" font-family="Times,serif" font-size="14.00" fill="#000000">t_fa7</text>
<text text-anchor="middle" x="439.2137" y="-160.6849" font-family="Times,serif" font-size="14.00" fill="#000000">KEY(ANY)</text>
</g>
<!-- send&#45;&gt;choose_payment -->
<g id="edge18" class="edge">
<title>send&#45;&gt;choose_payment</title>
<path fill="none" stroke="#000000" d="M522.1984,-122.1978C518.3224,-131.9597 512.9672,-144.003 506.7743,-154 504.6655,-157.404 502.2587,-160.8299 499.7464,-164.1433"/>
<polygon fill="#000000" stroke="#000000" points="496.9154,-162.0791 493.3937,-172.0716 502.3781,-166.4562 496.9154,-162.0791"/>
<text text-anchor="middle" x="529.326" y="-142.8" font-family="Times,serif" font-size="14.00" fill="#000000">t_8e0</text>
<text text-anchor="middle" x="499.65" y="-124.9978" font-family="Times,serif" font-size="14.00" fill="#000000">KEY(1)</text>
</g>
<!-- edit_address -->
<g id="node13" class="node">
<title>edit_address</title>
<ellipse fill="none" stroke="#000000" cx="483.7743" cy="-18" rx="75.8547" ry="18"/>
<text text-anchor="middle" x="483.7743" y="-13.8" font-family="Times,serif" font-size="14.00" fill="#000000">edit_address (#10)</text>
</g>
<!-- send&#45;&gt;edit_address -->
<g id="edge16" class="edge">
<title>send&#45;&gt;edit_address</title>
<path fill="none" stroke="#000000" d="M499.0467,-89.8507C490.6634,-84.2883 482.5602,-77.0347 477.8846,-68 474.4047,-61.2756 473.9542,-53.3769 474.8814,-45.8687"/>
<polygon fill="#000000" stroke="#000000" points="478.3223,-46.5104 476.8446,-36.0191 471.4573,-45.142 478.3223,-46.5104"/>
<text text-anchor="middle" x="493.7191" y="-56.8" font-family="Times,serif" font-size="14.00" fill="#000000">t_177</text>
<text text-anchor="middle" x="476.4984" y="-78.6507" font-family="Times,serif" font-size="14.00" fill="#000000">KEY(2)</text>
</g>
<!-- idle -->
<g id="node14" class="node">
<title>idle</title>
<ellipse fill="none" stroke="#000000" cx="625.7743" cy="-18" rx="44.3198" ry="18"/>
<text text-anchor="middle" x="625.7743" y="-13.8" font-family="Times,serif" font-size="14.00" fill="#000000">idle (#11)</text>
</g>
<!-- send&#45;&gt;idle -->
<g id="edge19" class="edge">
<title>send&#45;&gt;idle</title>
<path fill="none" stroke="#000000" d="M547.4769,-87.4183C562.2379,-74.3312 583.0113,-55.9136 599.4517,-41.3375"/>
<polygon fill="#000000" stroke="#000000" points="601.9684,-43.7838 607.1291,-34.5308 597.3246,-38.5459 601.9684,-43.7838"/>
<text text-anchor="middle" x="598.326" y="-56.8" font-family="Times,serif" font-size="14.00" fill="#000000">t_48c</text>
<text text-anchor="middle" x="570.0252" y="-76.2183" font-family="Times,serif" font-size="14.00" fill="#000000">KEY(0)</text>
</g>
<!-- edit_address&#45;&gt;send -->
<g id="edge17" class="edge">
<title>edit_address&#45;&gt;send</title>
<path fill="none" stroke="#000000" d="M497.971,-35.7062C502.1049,-41.3508 506.4092,-47.7562 509.7743,-54 513.5728,-61.048 516.9678,-69.02 519.8003,-76.4942"/>
<polygon fill="#000000" stroke="#000000" points="516.5097,-77.6871 523.1864,-85.9134 523.097,-75.3189 516.5097,-77.6871"/>
<text text-anchor="middle" x="530.1571" y="-56.8" font-family="Times,serif" font-size="14.00" fill="#000000">t_fa7</text>
<text text-anchor="middle" x="502.2469" y="-38.5062" font-family="Times,serif" font-size="14.00" fill="#000000">T</text>
</g>
<!-- idle&#45;&gt;start -->
<g id="edge20" class="edge">
<title>idle&#45;&gt;start</title>
<path fill="none" stroke="#000000" d="M629.1041,-36.049C632.0131,-53.4019 635.7743,-80.4011 635.7743,-104 635.7743,-620 635.7743,-620 635.7743,-620 635.7743,-672.2549 470.6094,-694.0209 381.0075,-701.9842"/>
<polygon fill="#000000" stroke="#000000" points="380.6619,-698.5009 370.9983,-702.8443 381.2613,-705.4752 380.6619,-698.5009"/>
<text text-anchor="middle" x="651.326" y="-357.8" font-family="Times,serif" font-size="14.00" fill="#000000">t_19e</text>
<text text-anchor="middle" x="606.5558" y="-38.849" font-family="Times,serif" font-size="14.00" fill="#000000">KEY(0)</text>
</g>
<!-- (any state) -->
<g id="node15" class="node">
<title>(any state)</title>
<ellipse fill="none" stroke="#000000" cx="375.7743" cy="-825.182" rx="47.3504" ry="47.3504"/>
<ellipse fill="none" stroke="#000000" cx="375.7743" cy="-825.182" rx="51.3647" ry="51.3647"/>
<text text-anchor="middle" x="375.7743" y="-820.982" font-family="Times,serif" font-size="14.00" fill="#000000">(any state)</text>
</g>
<!-- (any state)&#45;&gt;start -->
<g id="edge21" class="edge">
<title>(any state)&#45;&gt;start</title>
<path fill="none" stroke="#000000" d="M357.4505,-776.9427C352.8477,-765.4139 347.7864,-753.2036 342.7743,-742 341.4331,-739.0021 339.9777,-735.8915 338.4952,-732.8108"/>
<polygon fill="#000000" stroke="#000000" points="341.6142,-731.2221 334.0535,-723.8001 335.3356,-734.3171 341.6142,-731.2221"/>
<text text-anchor="middle" x="362.5502" y="-744.8" font-family="Times,serif" font-size="14.00" fill="#000000">t_75f</text>
<text text-anchor="middle" x="332.5677" y="-765.7427" font-family="Times,serif" font-size="14.00" fill="#000000">M(/start)</text>
</g>
</g>
</svg>
