<?xml version="1.0" encoding="UTF-8" standalone="no"?>
<!DOCTYPE svg PUBLIC "-//W3C//DTD SVG 1.1//EN"
 "http://www.w3.org/Graphics/SVG/1.1/DTD/svg11.dtd">
<!-- Generated by graphviz version 2.40.1 (20161225.0304)
 -->
<!-- Title: %3 Pages: 1 -->
<svg width="662pt" height="732pt"
 viewBox="0.00 0.00 661.66 732.00" xmlns="http://www.w3.org/2000/svg" xmlns:xlink="http://www.w3.org/1999/xlink">
<g id="graph0" class="graph" transform="scale(1 1) rotate(0) translate(4 728)">
<title>%3</title>
<polygon fill="#ffffff" stroke="transparent" points="-4,4 -4,-728 657.6639,-728 657.6639,4 -4,4"/>
<!-- 0 -->
<g id="node1" class="node">
<title>0</title>
<ellipse fill="none" stroke="#000000" cx="296.7743" cy="-706" rx="31.4456" ry="18"/>
<text text-anchor="middle" x="296.7743" y="-701.8" font-family="Times,serif" font-size="14.00" fill="#000000">_ (#0)</text>
</g>
<!-- 10 -->
<g id="node2" class="node">
<title>10</title>
<ellipse fill="none" stroke="#000000" cx="296.7743" cy="-620" rx="46.8976" ry="18"/>
<text text-anchor="middle" x="296.7743" y="-615.8" font-family="Times,serif" font-size="14.00" fill="#000000">start (#10)</text>
</g>
<!-- 0&#45;&gt;10 -->
<g id="edge1" class="edge">
<title>0&#45;&gt;10</title>
<path fill="none" stroke="#000000" d="M296.7743,-687.7616C296.7743,-676.3597 296.7743,-661.4342 296.7743,-648.494"/>
<polygon fill="#000000" stroke="#000000" points="300.2744,-648.2121 296.7743,-638.2121 293.2744,-648.2121 300.2744,-648.2121"/>
<text text-anchor="middle" x="302.2191" y="-658.8" font-family="Times,serif" font-size="14.00" fill="#000000">t0</text>
</g>
<!-- 5 -->
<g id="node3" class="node">
<title>5</title>
<ellipse fill="none" stroke="#000000" cx="153.7743" cy="-534" rx="153.5489" ry="18"/>
<text text-anchor="middle" x="153.7743" y="-529.8" font-family="Times,serif" font-size="14.00" fill="#000000">choose_product_to_see_description (#5)</text>
</g>
<!-- 10&#45;&gt;5 -->
<g id="edge2" class="edge">
<title>10&#45;&gt;5</title>
<path fill="none" stroke="#000000" d="M271.5379,-604.8229C249.4469,-591.5374 217.0302,-572.042 191.7976,-556.8672"/>
<polygon fill="#000000" stroke="#000000" points="193.5743,-553.8515 183.2008,-551.6971 189.9666,-559.8503 193.5743,-553.8515"/>
<text text-anchor="middle" x="240.2191" y="-572.8" font-family="Times,serif" font-size="14.00" fill="#000000">t1</text>
</g>
<!-- 4 -->
<g id="node4" class="node">
<title>4</title>
<ellipse fill="none" stroke="#000000" cx="466.7743" cy="-534" rx="140.9941" ry="18"/>
<text text-anchor="middle" x="466.7743" y="-529.8" font-family="Times,serif" font-size="14.00" fill="#000000">choose_product_to_make_order (#4)</text>
</g>
<!-- 10&#45;&gt;4 -->
<g id="edge4" class="edge">
<title>10&#45;&gt;4</title>
<path fill="none" stroke="#000000" d="M325.2285,-605.6055C351.8687,-592.1287 392.071,-571.791 422.8317,-556.2298"/>
<polygon fill="#000000" stroke="#000000" points="424.7063,-559.2039 432.0495,-551.5667 421.5464,-552.9577 424.7063,-559.2039"/>
<text text-anchor="middle" x="398.2191" y="-572.8" font-family="Times,serif" font-size="14.00" fill="#000000">t3</text>
</g>
<!-- 5&#45;&gt;10 -->
<g id="edge3" class="edge">
<title>5&#45;&gt;10</title>
<path fill="none" stroke="#000000" d="M211.457,-550.75C224.6203,-555.8742 238.1445,-562.2545 249.7743,-570 259.7954,-576.6741 269.2291,-585.871 276.9775,-594.5587"/>
<polygon fill="#000000" stroke="#000000" points="274.435,-596.9712 283.5881,-602.3071 279.7603,-592.4279 274.435,-596.9712"/>
<text text-anchor="middle" x="272.2191" y="-572.8" font-family="Times,serif" font-size="14.00" fill="#000000">t2</text>
</g>
<!-- 2 -->
<g id="node5" class="node">
<title>2</title>
<ellipse fill="none" stroke="#000000" cx="362.7743" cy="-448" rx="82.6118" ry="18"/>
<text text-anchor="middle" x="362.7743" y="-443.8" font-family="Times,serif" font-size="14.00" fill="#000000">choose_amount (#2)</text>
</g>
<!-- 4&#45;&gt;2 -->
<g id="edge5" class="edge">
<title>4&#45;&gt;2</title>
<path fill="none" stroke="#000000" d="M445.2254,-516.1807C429.7842,-503.412 408.8118,-486.0695 391.8833,-472.0709"/>
<polygon fill="#000000" stroke="#000000" points="393.8766,-469.1776 383.9397,-465.5022 389.4157,-474.5721 393.8766,-469.1776"/>
<text text-anchor="middle" x="427.2191" y="-486.8" font-family="Times,serif" font-size="14.00" fill="#000000">t4</text>
</g>
<!-- 6 -->
<g id="node6" class="node">
<title>6</title>
<ellipse fill="none" stroke="#000000" cx="406.7743" cy="-362" rx="54.6234" ry="18"/>
<text text-anchor="middle" x="406.7743" y="-357.8" font-family="Times,serif" font-size="14.00" fill="#000000">confirm (#6)</text>
</g>
<!-- 2&#45;&gt;6 -->
<g id="edge6" class="edge">
<title>2&#45;&gt;6</title>
<path fill="none" stroke="#000000" d="M372.1056,-429.7616C378.1547,-417.9383 386.1423,-402.3261 392.9257,-389.0676"/>
<polygon fill="#000000" stroke="#000000" points="396.1684,-390.4139 397.6073,-379.9172 389.9367,-387.2255 396.1684,-390.4139"/>
<text text-anchor="middle" x="393.2191" y="-400.8" font-family="Times,serif" font-size="14.00" fill="#000000">t5</text>
</g>
<!-- 6&#45;&gt;4 -->
<g id="edge7" class="edge">
<title>6&#45;&gt;4</title>
<path fill="none" stroke="#000000" d="M422.7303,-379.3147C433.6827,-392.2701 447.5058,-410.9654 454.7743,-430 464.0927,-454.4028 466.7304,-484.1839 467.2517,-505.6134"/>
<polygon fill="#000000" stroke="#000000" points="463.7526,-505.7307 467.3566,-515.6936 470.7522,-505.6577 463.7526,-505.7307"/>
<text text-anchor="middle" x="470.2191" y="-443.8" font-family="Times,serif" font-size="14.00" fill="#000000">t6</text>
</g>
<!-- 7 -->
<g id="node7" class="node">
<title>7</title>
<ellipse fill="none" stroke="#000000" cx="372.7743" cy="-276" rx="48.325" ry="18"/>
<text text-anchor="middle" x="372.7743" y="-271.8" font-family="Times,serif" font-size="14.00" fill="#000000">delete (#7)</text>
</g>
<!-- 6&#45;&gt;7 -->
<g id="edge8" class="edge">
<title>6&#45;&gt;7</title>
<path fill="none" stroke="#000000" d="M386.7974,-345.1406C381.6261,-339.621 376.7195,-333.072 373.8846,-326 371.1931,-319.2856 370.1359,-311.6459 369.9342,-304.3943"/>
<polygon fill="#000000" stroke="#000000" points="373.4376,-304.2757 370.1603,-294.2006 366.4394,-304.1205 373.4376,-304.2757"/>
<text text-anchor="middle" x="380.2191" y="-314.8" font-family="Times,serif" font-size="14.00" fill="#000000">t7</text>
</g>
<!-- 1 -->
<g id="node8" class="node">
<title>1</title>
<ellipse fill="none" stroke="#000000" cx="521.7743" cy="-276" rx="82.6032" ry="18"/>
<text text-anchor="middle" x="521.7743" y="-271.8" font-family="Times,serif" font-size="14.00" fill="#000000">choose_address (#1)</text>
</g>
<!-- 6&#45;&gt;1 -->
<g id="edge10" class="edge">
<title>6&#45;&gt;1</title>
<path fill="none" stroke="#000000" d="M428.9474,-345.4183C446.3452,-332.4079 470.7876,-314.1292 490.2242,-299.594"/>
<polygon fill="#000000" stroke="#000000" points="492.5727,-302.2081 498.485,-293.4163 488.3805,-296.6023 492.5727,-302.2081"/>
<text text-anchor="middle" x="477.2191" y="-314.8" font-family="Times,serif" font-size="14.00" fill="#000000">t9</text>
</g>
<!-- 7&#45;&gt;6 -->
<g id="edge9" class="edge">
<title>7&#45;&gt;6</title>
<path fill="none" stroke="#000000" d="M379.8578,-293.9172C384.4597,-305.5571 390.5521,-320.9673 395.7767,-334.1825"/>
<polygon fill="#000000" stroke="#000000" points="392.6322,-335.7488 399.5638,-343.7616 399.142,-333.1752 392.6322,-335.7488"/>
<text text-anchor="middle" x="398.2191" y="-314.8" font-family="Times,serif" font-size="14.00" fill="#000000">t8</text>
</g>
<!-- 3 -->
<g id="node9" class="node">
<title>3</title>
<ellipse fill="none" stroke="#000000" cx="521.7743" cy="-190" rx="86.4621" ry="18"/>
<text text-anchor="middle" x="521.7743" y="-185.8" font-family="Times,serif" font-size="14.00" fill="#000000">choose_payment (#3)</text>
</g>
<!-- 1&#45;&gt;3 -->
<g id="edge11" class="edge">
<title>1&#45;&gt;3</title>
<path fill="none" stroke="#000000" d="M521.7743,-257.7616C521.7743,-246.3597 521.7743,-231.4342 521.7743,-218.494"/>
<polygon fill="#000000" stroke="#000000" points="525.2744,-218.2121 521.7743,-208.2121 518.2744,-218.2121 525.2744,-218.2121"/>
<text text-anchor="middle" x="530.7191" y="-228.8" font-family="Times,serif" font-size="14.00" fill="#000000">t10</text>
</g>
<!-- 9 -->
<g id="node10" class="node">
<title>9</title>
<ellipse fill="none" stroke="#000000" cx="561.7743" cy="-104" rx="43.0237" ry="18"/>
<text text-anchor="middle" x="561.7743" y="-99.8" font-family="Times,serif" font-size="14.00" fill="#000000">send (#9)</text>
</g>
<!-- 3&#45;&gt;9 -->
<g id="edge12" class="edge">
<title>3&#45;&gt;9</title>
<path fill="none" stroke="#000000" d="M518.5891,-171.6637C517.7112,-161.8613 517.995,-149.8234 522.3973,-140 524.5672,-135.1582 527.7375,-130.6808 531.3518,-126.6471"/>
<polygon fill="#000000" stroke="#000000" points="534.0009,-128.9519 538.7034,-119.4578 529.1067,-123.9472 534.0009,-128.9519"/>
<text text-anchor="middle" x="530.4628" y="-142.8" font-family="Times,serif" font-size="14.00" fill="#000000">t11</text>
</g>
<!-- 9&#45;&gt;10 -->
<g id="edge16" class="edge">
<title>9&#45;&gt;10</title>
<path fill="none" stroke="#000000" d="M586.8273,-119.0498C608.2953,-134.0592 635.7743,-159.2726 635.7743,-190 635.7743,-534 635.7743,-534 635.7743,-534 635.7743,-591.5586 449.8403,-611.0313 353.3751,-617.2608"/>
<polygon fill="#000000" stroke="#000000" points="352.9648,-613.7794 343.2,-617.8902 353.397,-620.766 352.9648,-613.7794"/>
<text text-anchor="middle" x="644.7191" y="-357.8" font-family="Times,serif" font-size="14.00" fill="#000000">t15</text>
</g>
<!-- 9&#45;&gt;3 -->
<g id="edge15" class="edge">
<title>9&#45;&gt;3</title>
<path fill="none" stroke="#000000" d="M554.0442,-122.1485C549.9198,-131.6809 544.6928,-143.5274 539.7743,-154 538.4506,-156.8185 537.0422,-159.7466 535.6189,-162.6608"/>
<polygon fill="#000000" stroke="#000000" points="532.4088,-161.2562 531.1063,-171.7707 538.6815,-164.3634 532.4088,-161.2562"/>
<text text-anchor="middle" x="554.7191" y="-142.8" font-family="Times,serif" font-size="14.00" fill="#000000">t14</text>
</g>
<!-- 8 -->
<g id="node11" class="node">
<title>8</title>
<ellipse fill="none" stroke="#000000" cx="561.7743" cy="-18" rx="71.0117" ry="18"/>
<text text-anchor="middle" x="561.7743" y="-13.8" font-family="Times,serif" font-size="14.00" fill="#000000">edit_address (#8)</text>
</g>
<!-- 9&#45;&gt;8 -->
<g id="edge13" class="edge">
<title>9&#45;&gt;8</title>
<path fill="none" stroke="#000000" d="M550.3629,-86.369C547.3149,-80.7275 544.4383,-74.3049 542.8846,-68 541.0529,-60.5669 542.3636,-52.7319 544.9815,-45.526"/>
<polygon fill="#000000" stroke="#000000" points="548.2726,-46.7417 549.1894,-36.1866 541.8904,-43.8662 548.2726,-46.7417"/>
<text text-anchor="middle" x="551.7191" y="-56.8" font-family="Times,serif" font-size="14.00" fill="#000000">t12</text>
</g>
<!-- 8&#45;&gt;9 -->
<g id="edge14" class="edge">
<title>8&#45;&gt;9</title>
<path fill="none" stroke="#000000" d="M561.7743,-36.2121C561.7743,-47.6086 561.7743,-62.5329 561.7743,-75.4762"/>
<polygon fill="#000000" stroke="#000000" points="558.2744,-75.7616 561.7743,-85.7616 565.2744,-75.7616 558.2744,-75.7616"/>
<text text-anchor="middle" x="570.7191" y="-56.8" font-family="Times,serif" font-size="14.00" fill="#000000">t13</text>
</g>
</g>
</svg>
