<?xml version="1.0" encoding="UTF-8" standalone="no"?>
<!DOCTYPE svg PUBLIC "-//W3C//DTD SVG 1.1//EN"
 "http://www.w3.org/Graphics/SVG/1.1/DTD/svg11.dtd">
<!-- Generated by graphviz version 2.40.1 (20161225.0304)
 -->
<!-- Title: %3 Pages: 1 -->
<svg width="689pt" height="798pt"
 viewBox="0.00 0.00 688.51 798.36" xmlns="http://www.w3.org/2000/svg" xmlns:xlink="http://www.w3.org/1999/xlink">
<g id="graph0" class="graph" transform="scale(1 1) rotate(0) translate(4 794.364)">
<title>%3</title>
<polygon fill="#ffffff" stroke="transparent" points="-4,4 -4,-794.364 684.5079,-794.364 684.5079,4 -4,4"/>
<!-- _ -->
<g id="node1" class="node">
<title>_</title>
<ellipse fill="none" stroke="#000000" cx="270.7743" cy="-739.182" rx="31.4456" ry="18"/>
<text text-anchor="middle" x="270.7743" y="-734.982" font-family="Times,serif" font-size="14.00" fill="#000000">_ (#1)</text>
</g>
<!-- start -->
<g id="node2" class="node">
<title>start</title>
<ellipse fill="none" stroke="#000000" cx="320.7743" cy="-620" rx="46.8976" ry="18"/>
<text text-anchor="middle" x="320.7743" y="-615.8" font-family="Times,serif" font-size="14.00" fill="#000000">start (#12)</text>
</g>
<!-- _&#45;&gt;start -->
<g id="edge1" class="edge">
<title>_&#45;&gt;start</title>
<path fill="none" stroke="#000000" d="M278.152,-721.5963C286.3394,-702.0805 299.6574,-670.3351 309.2284,-647.5213"/>
<polygon fill="#000000" stroke="#000000" points="312.5612,-648.624 313.2024,-638.0486 306.1063,-645.9159 312.5612,-648.624"/>
<text text-anchor="middle" x="317.2191" y="-658.8" font-family="Times,serif" font-size="14.00" fill="#000000">t_75</text>
</g>
<!-- choose_product_to_see_description -->
<g id="node3" class="node">
<title>choose_product_to_see_description</title>
<ellipse fill="none" stroke="#000000" cx="153.7743" cy="-534" rx="153.5489" ry="18"/>
<text text-anchor="middle" x="153.7743" y="-529.8" font-family="Times,serif" font-size="14.00" fill="#000000">choose_product_to_see_description (#6)</text>
</g>
<!-- start&#45;&gt;choose_product_to_see_description -->
<g id="edge2" class="edge">
<title>start&#45;&gt;choose_product_to_see_description</title>
<path fill="none" stroke="#000000" d="M288.0317,-607.1637C272.3284,-600.7016 253.3875,-592.4554 236.8846,-584 221.1233,-575.9246 204.285,-566.0454 189.9149,-557.2075"/>
<polygon fill="#000000" stroke="#000000" points="191.659,-554.1706 181.3181,-551.8646 187.964,-560.1159 191.659,-554.1706"/>
<text text-anchor="middle" x="250.2191" y="-572.8" font-family="Times,serif" font-size="14.00" fill="#000000">t_95</text>
</g>
<!-- choose_product_to_make_order -->
<g id="node4" class="node">
<title>choose_product_to_make_order</title>
<ellipse fill="none" stroke="#000000" cx="466.7743" cy="-534" rx="140.9941" ry="18"/>
<text text-anchor="middle" x="466.7743" y="-529.8" font-family="Times,serif" font-size="14.00" fill="#000000">choose_product_to_make_order (#5)</text>
</g>
<!-- start&#45;&gt;choose_product_to_make_order -->
<g id="edge4" class="edge">
<title>start&#45;&gt;choose_product_to_make_order</title>
<path fill="none" stroke="#000000" d="M346.5401,-604.8229C369.0945,-591.5374 402.1913,-572.042 427.9533,-556.8672"/>
<polygon fill="#000000" stroke="#000000" points="429.8905,-559.7882 436.7304,-551.6971 426.3377,-553.7568 429.8905,-559.7882"/>
<text text-anchor="middle" x="413.0502" y="-572.8" font-family="Times,serif" font-size="14.00" fill="#000000">t_f4</text>
</g>
<!-- choose_product_to_see_description&#45;&gt;start -->
<g id="edge3" class="edge">
<title>choose_product_to_see_description&#45;&gt;start</title>
<path fill="none" stroke="#000000" d="M216.6189,-550.4656C231.8855,-555.6655 247.8212,-562.1515 261.7743,-570 274.24,-577.0118 286.5471,-586.8456 296.6692,-595.9387"/>
<polygon fill="#000000" stroke="#000000" points="294.5699,-598.7656 304.2799,-603.0044 299.3326,-593.6356 294.5699,-598.7656"/>
<text text-anchor="middle" x="294.2191" y="-572.8" font-family="Times,serif" font-size="14.00" fill="#000000">t_72</text>
</g>
<!-- choose_amount -->
<g id="node5" class="node">
<title>choose_amount</title>
<ellipse fill="none" stroke="#000000" cx="363.7743" cy="-448" rx="82.6118" ry="18"/>
<text text-anchor="middle" x="363.7743" y="-443.8" font-family="Times,serif" font-size="14.00" fill="#000000">choose_amount (#3)</text>
</g>
<!-- choose_product_to_make_order&#45;&gt;choose_amount -->
<g id="edge5" class="edge">
<title>choose_product_to_make_order&#45;&gt;choose_amount</title>
<path fill="none" stroke="#000000" d="M445.4326,-516.1807C430.1399,-503.412 409.3692,-486.0695 392.6034,-472.0709"/>
<polygon fill="#000000" stroke="#000000" points="394.6555,-469.2247 384.7362,-465.5022 390.1691,-474.598 394.6555,-469.2247"/>
<text text-anchor="middle" x="432.0502" y="-486.8" font-family="Times,serif" font-size="14.00" fill="#000000">t_f0</text>
</g>
<!-- confirm -->
<g id="node6" class="node">
<title>confirm</title>
<ellipse fill="none" stroke="#000000" cx="416.7743" cy="-362" rx="54.6234" ry="18"/>
<text text-anchor="middle" x="416.7743" y="-357.8" font-family="Times,serif" font-size="14.00" fill="#000000">confirm (#7)</text>
</g>
<!-- choose_amount&#45;&gt;confirm -->
<g id="edge6" class="edge">
<title>choose_amount&#45;&gt;confirm</title>
<path fill="none" stroke="#000000" d="M375.0142,-429.7616C382.3714,-417.8235 392.1092,-402.0226 400.3307,-388.6821"/>
<polygon fill="#000000" stroke="#000000" points="403.4654,-390.2667 405.7323,-379.9172 397.5061,-386.5941 403.4654,-390.2667"/>
<text text-anchor="middle" x="404.826" y="-400.8" font-family="Times,serif" font-size="14.00" fill="#000000">t_5e</text>
</g>
<!-- confirm&#45;&gt;choose_product_to_make_order -->
<g id="edge7" class="edge">
<title>confirm&#45;&gt;choose_product_to_make_order</title>
<path fill="none" stroke="#000000" d="M429.5472,-379.5061C438.4743,-392.7028 449.8228,-411.6139 455.7743,-430 463.8103,-454.8257 466.2903,-484.5549 466.9199,-505.8576"/>
<polygon fill="#000000" stroke="#000000" points="463.4206,-505.9329 467.0985,-515.8689 470.4195,-505.8081 463.4206,-505.9329"/>
<text text-anchor="middle" x="474.0502" y="-443.8" font-family="Times,serif" font-size="14.00" fill="#000000">t_f4</text>
</g>
<!-- delete -->
<g id="node7" class="node">
<title>delete</title>
<ellipse fill="none" stroke="#000000" cx="368.7743" cy="-276" rx="48.325" ry="18"/>
<text text-anchor="middle" x="368.7743" y="-271.8" font-family="Times,serif" font-size="14.00" fill="#000000">delete (#8)</text>
</g>
<!-- confirm&#45;&gt;delete -->
<g id="edge8" class="edge">
<title>confirm&#45;&gt;delete</title>
<path fill="none" stroke="#000000" d="M388.4635,-346.6126C381.0957,-341.1343 374.0606,-334.2389 369.8846,-326 366.5229,-319.3674 365.2861,-311.5768 365.1288,-304.1453"/>
<polygon fill="#000000" stroke="#000000" points="368.6306,-304.1634 365.5161,-294.0367 361.6357,-303.8953 368.6306,-304.1634"/>
<text text-anchor="middle" x="382.2191" y="-314.8" font-family="Times,serif" font-size="14.00" fill="#000000">t_04</text>
</g>
<!-- choose_address -->
<g id="node8" class="node">
<title>choose_address</title>
<ellipse fill="none" stroke="#000000" cx="517.7743" cy="-276" rx="82.6032" ry="18"/>
<text text-anchor="middle" x="517.7743" y="-271.8" font-family="Times,serif" font-size="14.00" fill="#000000">choose_address (#2)</text>
</g>
<!-- confirm&#45;&gt;choose_address -->
<g id="edge10" class="edge">
<title>confirm&#45;&gt;choose_address</title>
<path fill="none" stroke="#000000" d="M436.7286,-345.0092C451.7477,-332.2207 472.5407,-314.5158 489.3049,-300.2413"/>
<polygon fill="#000000" stroke="#000000" points="491.8232,-302.6939 497.168,-293.546 487.2851,-297.3642 491.8232,-302.6939"/>
<text text-anchor="middle" x="484.0502" y="-314.8" font-family="Times,serif" font-size="14.00" fill="#000000">t_0f</text>
</g>
<!-- delete&#45;&gt;confirm -->
<g id="edge9" class="edge">
<title>delete&#45;&gt;confirm</title>
<path fill="none" stroke="#000000" d="M382.5062,-293.4477C386.7114,-299.1866 391.1734,-305.7109 394.7743,-312 398.8371,-319.0959 402.6587,-327.0836 405.9407,-334.5575"/>
<polygon fill="#000000" stroke="#000000" points="402.8016,-336.1206 409.9194,-343.9684 409.2491,-333.3948 402.8016,-336.1206"/>
<text text-anchor="middle" x="412.826" y="-314.8" font-family="Times,serif" font-size="14.00" fill="#000000">t_5e</text>
</g>
<!-- choose_payment -->
<g id="node9" class="node">
<title>choose_payment</title>
<ellipse fill="none" stroke="#000000" cx="517.7743" cy="-190" rx="86.4621" ry="18"/>
<text text-anchor="middle" x="517.7743" y="-185.8" font-family="Times,serif" font-size="14.00" fill="#000000">choose_payment (#4)</text>
</g>
<!-- choose_address&#45;&gt;choose_payment -->
<g id="edge11" class="edge">
<title>choose_address&#45;&gt;choose_payment</title>
<path fill="none" stroke="#000000" d="M517.7743,-257.7616C517.7743,-246.3597 517.7743,-231.4342 517.7743,-218.494"/>
<polygon fill="#000000" stroke="#000000" points="521.2744,-218.2121 517.7743,-208.2121 514.2744,-218.2121 521.2744,-218.2121"/>
<text text-anchor="middle" x="529.826" y="-228.8" font-family="Times,serif" font-size="14.00" fill="#000000">t_8e</text>
</g>
<!-- send -->
<g id="node10" class="node">
<title>send</title>
<ellipse fill="none" stroke="#000000" cx="549.7743" cy="-104" rx="47.2185" ry="18"/>
<text text-anchor="middle" x="549.7743" y="-99.8" font-family="Times,serif" font-size="14.00" fill="#000000">send (#11)</text>
</g>
<!-- choose_payment&#45;&gt;send -->
<g id="edge12" class="edge">
<title>choose_payment&#45;&gt;send</title>
<path fill="none" stroke="#000000" d="M510.7701,-171.77C508.1188,-161.9987 506.6672,-149.9566 511.0087,-140 513.014,-135.4011 515.9285,-131.1257 519.273,-127.2452"/>
<polygon fill="#000000" stroke="#000000" points="522.0393,-129.4258 526.5882,-119.8572 517.0651,-124.5006 522.0393,-129.4258"/>
<text text-anchor="middle" x="521.6571" y="-142.8" font-family="Times,serif" font-size="14.00" fill="#000000">t_fa</text>
</g>
<!-- send&#45;&gt;choose_payment -->
<g id="edge15" class="edge">
<title>send&#45;&gt;choose_payment</title>
<path fill="none" stroke="#000000" d="M543.9268,-122.1558C540.7742,-131.6903 536.7279,-143.5364 532.7743,-154 531.7422,-156.7314 530.6322,-159.5642 529.4998,-162.3867"/>
<polygon fill="#000000" stroke="#000000" points="526.2033,-161.2007 525.6441,-171.7808 532.679,-163.8586 526.2033,-161.2007"/>
<text text-anchor="middle" x="548.826" y="-142.8" font-family="Times,serif" font-size="14.00" fill="#000000">t_8e</text>
</g>
<!-- edit_address -->
<g id="node11" class="node">
<title>edit_address</title>
<ellipse fill="none" stroke="#000000" cx="501.7743" cy="-18" rx="71.0117" ry="18"/>
<text text-anchor="middle" x="501.7743" y="-13.8" font-family="Times,serif" font-size="14.00" fill="#000000">edit_address (#9)</text>
</g>
<!-- send&#45;&gt;edit_address -->
<g id="edge13" class="edge">
<title>send&#45;&gt;edit_address</title>
<path fill="none" stroke="#000000" d="M521.9551,-88.9757C514.4097,-83.4401 507.1534,-76.422 502.8846,-68 499.5229,-61.3674 498.2861,-53.5768 498.1288,-46.1453"/>
<polygon fill="#000000" stroke="#000000" points="501.6306,-46.1634 498.5161,-36.0367 494.6357,-45.8953 501.6306,-46.1634"/>
<text text-anchor="middle" x="515.2191" y="-56.8" font-family="Times,serif" font-size="14.00" fill="#000000">t_17</text>
</g>
<!-- idle -->
<g id="node12" class="node">
<title>idle</title>
<ellipse fill="none" stroke="#000000" cx="635.7743" cy="-18" rx="44.9685" ry="18"/>
<text text-anchor="middle" x="635.7743" y="-13.8" font-family="Times,serif" font-size="14.00" fill="#000000">idle (#10)</text>
</g>
<!-- send&#45;&gt;idle -->
<g id="edge16" class="edge">
<title>send&#45;&gt;idle</title>
<path fill="none" stroke="#000000" d="M565.6247,-86.5984C574.6326,-76.8569 586.2117,-64.5792 596.8846,-54 600.9686,-49.9519 605.3764,-45.7347 609.7066,-41.6721"/>
<polygon fill="#000000" stroke="#000000" points="612.3814,-43.9647 617.3302,-34.5967 607.6196,-38.8339 612.3814,-43.9647"/>
<text text-anchor="middle" x="609.2191" y="-56.8" font-family="Times,serif" font-size="14.00" fill="#000000">t_48</text>
</g>
<!-- edit_address&#45;&gt;send -->
<g id="edge14" class="edge">
<title>edit_address&#45;&gt;send</title>
<path fill="none" stroke="#000000" d="M515.775,-35.8151C519.9009,-41.4641 524.25,-47.8447 527.7743,-54 531.8371,-61.0959 535.6587,-69.0836 538.9407,-76.5575"/>
<polygon fill="#000000" stroke="#000000" points="535.8016,-78.1206 542.9194,-85.9684 542.2491,-75.3948 535.8016,-78.1206"/>
<text text-anchor="middle" x="544.6571" y="-56.8" font-family="Times,serif" font-size="14.00" fill="#000000">t_fa</text>
</g>
<!-- idle&#45;&gt;start -->
<g id="edge17" class="edge">
<title>idle&#45;&gt;start</title>
<path fill="none" stroke="#000000" d="M635.7743,-36.1199C635.7743,-53.5241 635.7743,-80.559 635.7743,-104 635.7743,-534 635.7743,-534 635.7743,-534 635.7743,-587.016 467.6205,-608.4704 377.0297,-616.1819"/>
<polygon fill="#000000" stroke="#000000" points="376.595,-612.7057 366.9153,-617.0132 377.1685,-619.6822 376.595,-612.7057"/>
<text text-anchor="middle" x="648.2191" y="-314.8" font-family="Times,serif" font-size="14.00" fill="#000000">t_19</text>
</g>
<!-- (any state) -->
<g id="node13" class="node">
<title>(any state)</title>
<ellipse fill="none" stroke="#000000" cx="371.7743" cy="-739.182" rx="47.3504" ry="47.3504"/>
<ellipse fill="none" stroke="#000000" cx="371.7743" cy="-739.182" rx="51.3647" ry="51.3647"/>
<text text-anchor="middle" x="371.7743" y="-734.982" font-family="Times,serif" font-size="14.00" fill="#000000">(any state)</text>
</g>
<!-- (any state)&#45;&gt;start -->
<g id="edge18" class="edge">
<title>(any state)&#45;&gt;start</title>
<path fill="none" stroke="#000000" d="M351.6177,-692.0781C345.1391,-676.9383 338.1787,-660.6725 332.5125,-647.4311"/>
<polygon fill="#000000" stroke="#000000" points="335.6132,-645.7804 328.4613,-637.9637 329.1777,-648.5343 335.6132,-645.7804"/>
<text text-anchor="middle" x="353.2191" y="-658.8" font-family="Times,serif" font-size="14.00" fill="#000000">t_75</text>
</g>
</g>
</svg>
